<svg width="36" height="35" viewBox="0 0 36 35" fill="none" xmlns="http://www.w3.org/2000/svg">
<g filter="url(#filter0_d_1767_51)">
<rect x="4" width="28" height="27" rx="13.5" fill="white"/>
<g filter="url(#filter1_d_1767_51)">
<path d="M14.472 18.195C13.6487 18.195 12.9293 18.0087 12.314 17.636C11.7073 17.2547 11.2393 16.7087 10.91 15.998C10.5807 15.2787 10.416 14.4337 10.416 13.463C10.416 12.4837 10.5763 11.6387 10.897 10.928C11.2263 10.2173 11.6943 9.67133 12.301 9.29C12.9163 8.90867 13.64 8.718 14.472 8.718C15.304 8.718 16.0233 8.90867 16.63 9.29C17.2367 9.67133 17.7003 10.2173 18.021 10.928C18.3503 11.6387 18.515 12.4837 18.515 13.463C18.515 14.4337 18.3503 15.2787 18.021 15.998C17.6917 16.7087 17.2237 17.2547 16.617 17.636C16.0103 18.0087 15.2953 18.195 14.472 18.195ZM14.472 16.375C15.122 16.375 15.6247 16.1193 15.98 15.608C16.3353 15.0967 16.513 14.3903 16.513 13.489C16.513 12.579 16.3353 11.864 15.98 11.344C15.6333 10.824 15.1307 10.564 14.472 10.564C13.8133 10.564 13.3063 10.824 12.951 11.344C12.6043 11.864 12.431 12.579 12.431 13.489C12.431 14.3903 12.6087 15.0967 12.964 15.608C13.3193 16.1193 13.822 16.375 14.472 16.375ZM23.0452 18.195C22.3345 18.195 21.7019 18.0347 21.1472 17.714C20.5925 17.3847 20.1549 16.9167 19.8342 16.31C19.5222 15.6947 19.3662 14.9667 19.3662 14.126C19.3662 12.9907 19.5525 12.0157 19.9252 11.201C20.2979 10.3863 20.8222 9.771 21.4982 9.355C22.1742 8.93033 22.9672 8.718 23.8772 8.718C24.4492 8.718 24.9605 8.78733 25.4112 8.926V10.564C25.0472 10.382 24.5879 10.291 24.0332 10.291C23.2879 10.291 22.6899 10.5077 22.2392 10.941C21.7885 11.3657 21.5155 11.9897 21.4202 12.813C21.6715 12.553 21.9965 12.3537 22.3952 12.215C22.7939 12.0763 23.2229 12.007 23.6822 12.007C24.2629 12.007 24.7742 12.1283 25.2162 12.371C25.6669 12.605 26.0135 12.9517 26.2562 13.411C26.5075 13.8617 26.6332 14.3947 26.6332 15.01C26.6332 15.6167 26.4945 16.1627 26.2172 16.648C25.9399 17.1247 25.5282 17.5017 24.9822 17.779C24.4449 18.0563 23.7992 18.195 23.0452 18.195ZM23.0582 16.7C23.5262 16.7 23.9075 16.5527 24.2022 16.258C24.5055 15.9633 24.6572 15.582 24.6572 15.114C24.6572 14.646 24.5055 14.2603 24.2022 13.957C23.9075 13.6537 23.5262 13.502 23.0582 13.502C22.6162 13.502 22.2435 13.658 21.9402 13.97C21.6369 14.2733 21.4852 14.6547 21.4852 15.114C21.4852 15.5473 21.6325 15.92 21.9272 16.232C22.2305 16.544 22.6075 16.7 23.0582 16.7Z" fill="black"/>
</g>
</g>
<defs>
<filter id="filter0_d_1767_51" x="0" y="0" width="36" height="35" filterUnits="userSpaceOnUse" color-interpolation-filters="sRGB">
<feFlood flood-opacity="0" result="BackgroundImageFix"/>
<feColorMatrix in="SourceAlpha" type="matrix" values="0 0 0 0 0 0 0 0 0 0 0 0 0 0 0 0 0 0 127 0" result="hardAlpha"/>
<feOffset dy="4"/>
<feGaussianBlur stdDeviation="2"/>
<feComposite in2="hardAlpha" operator="out"/>
<feColorMatrix type="matrix" values="0 0 0 0 0 0 0 0 0 0 0 0 0 0 0 0 0 0 0.25 0"/>
<feBlend mode="normal" in2="BackgroundImageFix" result="effect1_dropShadow_1767_51"/>
<feBlend mode="normal" in="SourceGraphic" in2="effect1_dropShadow_1767_51" result="shape"/>
</filter>
<filter id="filter1_d_1767_51" x="6.41406" y="8.71875" width="24.2188" height="17.4766" filterUnits="userSpaceOnUse" color-interpolation-filters="sRGB">
<feFlood flood-opacity="0" result="BackgroundImageFix"/>
<feColorMatrix in="SourceAlpha" type="matrix" values="0 0 0 0 0 0 0 0 0 0 0 0 0 0 0 0 0 0 127 0" result="hardAlpha"/>
<feOffset dy="4"/>
<feGaussianBlur stdDeviation="2"/>
<feComposite in2="hardAlpha" operator="out"/>
<feColorMatrix type="matrix" values="0 0 0 0 0 0 0 0 0 0 0 0 0 0 0 0 0 0 0.25 0"/>
<feBlend mode="normal" in2="BackgroundImageFix" result="effect1_dropShadow_1767_51"/>
<feBlend mode="normal" in="SourceGraphic" in2="effect1_dropShadow_1767_51" result="shape"/>
</filter>
</defs>
</svg>
