<svg width="36" height="33" viewBox="0 0 36 33" fill="none" xmlns="http://www.w3.org/2000/svg">
<g filter="url(#filter0_d_1726_248)">
<rect x="4" width="28" height="27" rx="13.5" fill="white"/>
<g filter="url(#filter1_d_1726_248)">
<path d="M14.472 18.195C13.6487 18.195 12.9293 18.0087 12.314 17.636C11.7073 17.2547 11.2393 16.7087 10.91 15.998C10.5807 15.2787 10.416 14.4337 10.416 13.463C10.416 12.4837 10.5763 11.6387 10.897 10.928C11.2263 10.2173 11.6943 9.67133 12.301 9.29C12.9163 8.90867 13.64 8.718 14.472 8.718C15.304 8.718 16.0233 8.90867 16.63 9.29C17.2367 9.67133 17.7003 10.2173 18.021 10.928C18.3503 11.6387 18.515 12.4837 18.515 13.463C18.515 14.4337 18.3503 15.2787 18.021 15.998C17.6917 16.7087 17.2237 17.2547 16.617 17.636C16.0103 18.0087 15.2953 18.195 14.472 18.195ZM14.472 16.375C15.122 16.375 15.6247 16.1193 15.98 15.608C16.3353 15.0967 16.513 14.3903 16.513 13.489C16.513 12.579 16.3353 11.864 15.98 11.344C15.6333 10.824 15.1307 10.564 14.472 10.564C13.8133 10.564 13.3063 10.824 12.951 11.344C12.6043 11.864 12.431 12.579 12.431 13.489C12.431 14.3903 12.6087 15.0967 12.964 15.608C13.3193 16.1193 13.822 16.375 14.472 16.375ZM22.9672 18.195C21.8665 18.195 20.9912 17.9567 20.3412 17.48C19.6912 17.0033 19.3662 16.323 19.3662 15.439C19.3662 14.9017 19.4962 14.451 19.7562 14.087C20.0162 13.7143 20.3629 13.4457 20.7962 13.281C20.4409 13.0817 20.1635 12.8087 19.9642 12.462C19.7735 12.1153 19.6782 11.7297 19.6782 11.305C19.6782 10.499 19.9729 9.86633 20.5622 9.407C21.1602 8.94767 21.9619 8.718 22.9672 8.718C23.9725 8.718 24.7699 8.94767 25.3592 9.407C25.9485 9.86633 26.2432 10.499 26.2432 11.305C26.2432 11.7383 26.1435 12.1283 25.9442 12.475C25.7535 12.813 25.4805 13.0817 25.1252 13.281C25.5585 13.4457 25.9052 13.7143 26.1652 14.087C26.4252 14.451 26.5552 14.9017 26.5552 15.439C26.5552 16.323 26.2302 17.0033 25.5802 17.48C24.9389 17.9567 24.0679 18.195 22.9672 18.195ZM22.9672 12.774C23.3745 12.774 23.7082 12.657 23.9682 12.423C24.2282 12.189 24.3582 11.8857 24.3582 11.513C24.3582 11.1317 24.2282 10.824 23.9682 10.59C23.7082 10.3473 23.3745 10.226 22.9672 10.226C22.5599 10.226 22.2262 10.3473 21.9662 10.59C21.7149 10.824 21.5892 11.1317 21.5892 11.513C21.5892 11.8857 21.7149 12.189 21.9662 12.423C22.2262 12.657 22.5599 12.774 22.9672 12.774ZM22.9672 16.713C23.4439 16.713 23.8252 16.583 24.1112 16.323C24.4059 16.063 24.5532 15.712 24.5532 15.27C24.5532 14.8367 24.4059 14.4943 24.1112 14.243C23.8165 13.983 23.4352 13.853 22.9672 13.853C22.4992 13.853 22.1179 13.983 21.8232 14.243C21.5285 14.4943 21.3812 14.8367 21.3812 15.27C21.3812 15.712 21.5242 16.063 21.8102 16.323C22.1049 16.583 22.4905 16.713 22.9672 16.713Z" fill="black"/>
</g>
</g>
<defs>
<filter id="filter0_d_1726_248" x="0" y="0" width="36" height="35" filterUnits="userSpaceOnUse" color-interpolation-filters="sRGB">
<feFlood flood-opacity="0" result="BackgroundImageFix"/>
<feColorMatrix in="SourceAlpha" type="matrix" values="0 0 0 0 0 0 0 0 0 0 0 0 0 0 0 0 0 0 127 0" result="hardAlpha"/>
<feOffset dy="4"/>
<feGaussianBlur stdDeviation="2"/>
<feComposite in2="hardAlpha" operator="out"/>
<feColorMatrix type="matrix" values="0 0 0 0 0 0 0 0 0 0 0 0 0 0 0 0 0 0 0.25 0"/>
<feBlend mode="normal" in2="BackgroundImageFix" result="effect1_dropShadow_1726_248"/>
<feBlend mode="normal" in="SourceGraphic" in2="effect1_dropShadow_1726_248" result="shape"/>
</filter>
<filter id="filter1_d_1726_248" x="6.41406" y="8.71875" width="24.1406" height="17.4766" filterUnits="userSpaceOnUse" color-interpolation-filters="sRGB">
<feFlood flood-opacity="0" result="BackgroundImageFix"/>
<feColorMatrix in="SourceAlpha" type="matrix" values="0 0 0 0 0 0 0 0 0 0 0 0 0 0 0 0 0 0 127 0" result="hardAlpha"/>
<feOffset dy="4"/>
<feGaussianBlur stdDeviation="2"/>
<feComposite in2="hardAlpha" operator="out"/>
<feColorMatrix type="matrix" values="0 0 0 0 0 0 0 0 0 0 0 0 0 0 0 0 0 0 0.25 0"/>
<feBlend mode="normal" in2="BackgroundImageFix" result="effect1_dropShadow_1726_248"/>
<feBlend mode="normal" in="SourceGraphic" in2="effect1_dropShadow_1726_248" result="shape"/>
</filter>
</defs>
</svg>
