<svg width="36" height="33" viewBox="0 0 36 33" fill="none" xmlns="http://www.w3.org/2000/svg">
<g filter="url(#filter0_d_1753_1794)">
<rect x="4" width="28" height="27" rx="13.5" fill="white"/>
<g filter="url(#filter1_d_1753_1794)">
<path d="M14.472 18.195C13.6487 18.195 12.9293 18.0087 12.314 17.636C11.7073 17.2547 11.2393 16.7087 10.91 15.998C10.5807 15.2787 10.416 14.4337 10.416 13.463C10.416 12.4837 10.5763 11.6387 10.897 10.928C11.2263 10.2173 11.6943 9.67133 12.301 9.29C12.9163 8.90867 13.64 8.718 14.472 8.718C15.304 8.718 16.0233 8.90867 16.63 9.29C17.2367 9.67133 17.7003 10.2173 18.021 10.928C18.3503 11.6387 18.515 12.4837 18.515 13.463C18.515 14.4337 18.3503 15.2787 18.021 15.998C17.6917 16.7087 17.2237 17.2547 16.617 17.636C16.0103 18.0087 15.2953 18.195 14.472 18.195ZM14.472 16.375C15.122 16.375 15.6247 16.1193 15.98 15.608C16.3353 15.0967 16.513 14.3903 16.513 13.489C16.513 12.579 16.3353 11.864 15.98 11.344C15.6333 10.824 15.1307 10.564 14.472 10.564C13.8133 10.564 13.3063 10.824 12.951 11.344C12.6043 11.864 12.431 12.579 12.431 13.489C12.431 14.3903 12.6087 15.0967 12.964 15.608C13.3193 16.1193 13.822 16.375 14.472 16.375ZM22.1222 18.195C21.5155 18.195 21.0042 18.13 20.5882 18V16.362C20.9782 16.544 21.4375 16.635 21.9662 16.635C22.7115 16.635 23.3139 16.4227 23.7732 15.998C24.2325 15.5647 24.5099 14.9363 24.6052 14.113C24.3539 14.373 24.0375 14.5723 23.6562 14.711C23.2835 14.841 22.8675 14.906 22.4082 14.906C21.8102 14.906 21.2815 14.7847 20.8222 14.542C20.3629 14.2993 20.0032 13.9527 19.7432 13.502C19.4919 13.0427 19.3662 12.5053 19.3662 11.89C19.3662 11.2833 19.5049 10.7417 19.7822 10.265C20.0595 9.77967 20.4669 9.40267 21.0042 9.134C21.5415 8.85667 22.1915 8.718 22.9542 8.718C23.6909 8.718 24.3365 8.88267 24.8912 9.212C25.4459 9.53267 25.8749 10.0007 26.1782 10.616C26.4815 11.2227 26.6332 11.9507 26.6332 12.8C26.6332 13.944 26.4469 14.9233 26.0742 15.738C25.7015 16.544 25.1772 17.155 24.5012 17.571C23.8252 17.987 23.0322 18.195 22.1222 18.195ZM22.9542 13.424C23.4049 13.424 23.7819 13.2723 24.0852 12.969C24.3885 12.6657 24.5402 12.2843 24.5402 11.825C24.5402 11.383 24.3885 11.006 24.0852 10.694C23.7905 10.382 23.4135 10.226 22.9542 10.226C22.4949 10.226 22.1135 10.3777 21.8102 10.681C21.5155 10.9757 21.3682 11.357 21.3682 11.825C21.3682 12.2843 21.5155 12.6657 21.8102 12.969C22.1135 13.2723 22.4949 13.424 22.9542 13.424Z" fill="black"/>
</g>
</g>
<defs>
<filter id="filter0_d_1753_1794" x="0" y="0" width="36" height="35" filterUnits="userSpaceOnUse" color-interpolation-filters="sRGB">
<feFlood flood-opacity="0" result="BackgroundImageFix"/>
<feColorMatrix in="SourceAlpha" type="matrix" values="0 0 0 0 0 0 0 0 0 0 0 0 0 0 0 0 0 0 127 0" result="hardAlpha"/>
<feOffset dy="4"/>
<feGaussianBlur stdDeviation="2"/>
<feComposite in2="hardAlpha" operator="out"/>
<feColorMatrix type="matrix" values="0 0 0 0 0 0 0 0 0 0 0 0 0 0 0 0 0 0 0.25 0"/>
<feBlend mode="normal" in2="BackgroundImageFix" result="effect1_dropShadow_1753_1794"/>
<feBlend mode="normal" in="SourceGraphic" in2="effect1_dropShadow_1753_1794" result="shape"/>
</filter>
<filter id="filter1_d_1753_1794" x="6.41406" y="8.71875" width="24.2188" height="17.4766" filterUnits="userSpaceOnUse" color-interpolation-filters="sRGB">
<feFlood flood-opacity="0" result="BackgroundImageFix"/>
<feColorMatrix in="SourceAlpha" type="matrix" values="0 0 0 0 0 0 0 0 0 0 0 0 0 0 0 0 0 0 127 0" result="hardAlpha"/>
<feOffset dy="4"/>
<feGaussianBlur stdDeviation="2"/>
<feComposite in2="hardAlpha" operator="out"/>
<feColorMatrix type="matrix" values="0 0 0 0 0 0 0 0 0 0 0 0 0 0 0 0 0 0 0.25 0"/>
<feBlend mode="normal" in2="BackgroundImageFix" result="effect1_dropShadow_1753_1794"/>
<feBlend mode="normal" in="SourceGraphic" in2="effect1_dropShadow_1753_1794" result="shape"/>
</filter>
</defs>
</svg>
