<svg width="36" height="33" viewBox="0 0 36 33" fill="none" xmlns="http://www.w3.org/2000/svg">
<g filter="url(#filter0_d_1753_1888)">
<rect x="4" width="28" height="27" rx="13.5" fill="white"/>
<g filter="url(#filter1_d_1753_1888)">
<path d="M13.301 11.071L11.416 12.436V10.538L13.626 8.913H15.277V18H13.301V11.071ZM16.3672 16.817L17.9922 15.335C18.3215 15.0403 18.5685 14.8237 18.7332 14.685C19.2272 14.2517 19.6042 13.905 19.8642 13.645C20.1242 13.3763 20.3365 13.099 20.5012 12.813C20.6658 12.527 20.7482 12.2323 20.7482 11.929C20.7482 11.5043 20.6225 11.1707 20.3712 10.928C20.1285 10.6853 19.7472 10.564 19.2272 10.564C18.7938 10.564 18.3605 10.642 17.9272 10.798C17.4938 10.9453 17.0952 11.1577 16.7312 11.435V9.55C17.1125 9.28133 17.5458 9.07767 18.0312 8.939C18.5252 8.79167 19.0582 8.718 19.6302 8.718C20.2888 8.718 20.8565 8.83933 21.3332 9.082C21.8098 9.32467 22.1738 9.667 22.4252 10.109C22.6765 10.551 22.8022 11.058 22.8022 11.63C22.8022 12.2713 22.6375 12.8433 22.3082 13.346C21.9875 13.84 21.4632 14.425 20.7352 15.101L19.3442 16.375H23.1142V18H16.3672V16.817Z" fill="black"/>
</g>
</g>
<defs>
<filter id="filter0_d_1753_1888" x="0" y="0" width="36" height="35" filterUnits="userSpaceOnUse" color-interpolation-filters="sRGB">
<feFlood flood-opacity="0" result="BackgroundImageFix"/>
<feColorMatrix in="SourceAlpha" type="matrix" values="0 0 0 0 0 0 0 0 0 0 0 0 0 0 0 0 0 0 127 0" result="hardAlpha"/>
<feOffset dy="4"/>
<feGaussianBlur stdDeviation="2"/>
<feComposite in2="hardAlpha" operator="out"/>
<feColorMatrix type="matrix" values="0 0 0 0 0 0 0 0 0 0 0 0 0 0 0 0 0 0 0.25 0"/>
<feBlend mode="normal" in2="BackgroundImageFix" result="effect1_dropShadow_1753_1888"/>
<feBlend mode="normal" in="SourceGraphic" in2="effect1_dropShadow_1753_1888" result="shape"/>
</filter>
<filter id="filter1_d_1753_1888" x="7.41406" y="8.71875" width="19.6992" height="17.2812" filterUnits="userSpaceOnUse" color-interpolation-filters="sRGB">
<feFlood flood-opacity="0" result="BackgroundImageFix"/>
<feColorMatrix in="SourceAlpha" type="matrix" values="0 0 0 0 0 0 0 0 0 0 0 0 0 0 0 0 0 0 127 0" result="hardAlpha"/>
<feOffset dy="4"/>
<feGaussianBlur stdDeviation="2"/>
<feComposite in2="hardAlpha" operator="out"/>
<feColorMatrix type="matrix" values="0 0 0 0 0 0 0 0 0 0 0 0 0 0 0 0 0 0 0.25 0"/>
<feBlend mode="normal" in2="BackgroundImageFix" result="effect1_dropShadow_1753_1888"/>
<feBlend mode="normal" in="SourceGraphic" in2="effect1_dropShadow_1753_1888" result="shape"/>
</filter>
</defs>
</svg>
