<svg width="36" height="33" viewBox="0 0 36 33" fill="none" xmlns="http://www.w3.org/2000/svg">
<g filter="url(#filter0_d_1753_1941)">
<rect x="4" width="28" height="27" rx="13.5" fill="white"/>
<g filter="url(#filter1_d_1753_1941)">
<path d="M13.301 11.071L11.416 12.436V10.538L13.626 8.913H15.277V18H13.301V11.071ZM20.0462 18.195C19.3355 18.195 18.7028 18.0347 18.1482 17.714C17.5935 17.3847 17.1558 16.9167 16.8352 16.31C16.5232 15.6947 16.3672 14.9667 16.3672 14.126C16.3672 12.9907 16.5535 12.0157 16.9262 11.201C17.2988 10.3863 17.8232 9.771 18.4992 9.355C19.1752 8.93033 19.9682 8.718 20.8782 8.718C21.4502 8.718 21.9615 8.78733 22.4122 8.926V10.564C22.0482 10.382 21.5888 10.291 21.0342 10.291C20.2888 10.291 19.6908 10.5077 19.2402 10.941C18.7895 11.3657 18.5165 11.9897 18.4212 12.813C18.6725 12.553 18.9975 12.3537 19.3962 12.215C19.7948 12.0763 20.2238 12.007 20.6832 12.007C21.2638 12.007 21.7752 12.1283 22.2172 12.371C22.6678 12.605 23.0145 12.9517 23.2572 13.411C23.5085 13.8617 23.6342 14.3947 23.6342 15.01C23.6342 15.6167 23.4955 16.1627 23.2182 16.648C22.9408 17.1247 22.5292 17.5017 21.9832 17.779C21.4458 18.0563 20.8002 18.195 20.0462 18.195ZM20.0592 16.7C20.5272 16.7 20.9085 16.5527 21.2032 16.258C21.5065 15.9633 21.6582 15.582 21.6582 15.114C21.6582 14.646 21.5065 14.2603 21.2032 13.957C20.9085 13.6537 20.5272 13.502 20.0592 13.502C19.6172 13.502 19.2445 13.658 18.9412 13.97C18.6378 14.2733 18.4862 14.6547 18.4862 15.114C18.4862 15.5473 18.6335 15.92 18.9282 16.232C19.2315 16.544 19.6085 16.7 20.0592 16.7Z" fill="black"/>
</g>
</g>
<defs>
<filter id="filter0_d_1753_1941" x="0" y="0" width="36" height="35" filterUnits="userSpaceOnUse" color-interpolation-filters="sRGB">
<feFlood flood-opacity="0" result="BackgroundImageFix"/>
<feColorMatrix in="SourceAlpha" type="matrix" values="0 0 0 0 0 0 0 0 0 0 0 0 0 0 0 0 0 0 127 0" result="hardAlpha"/>
<feOffset dy="4"/>
<feGaussianBlur stdDeviation="2"/>
<feComposite in2="hardAlpha" operator="out"/>
<feColorMatrix type="matrix" values="0 0 0 0 0 0 0 0 0 0 0 0 0 0 0 0 0 0 0.25 0"/>
<feBlend mode="normal" in2="BackgroundImageFix" result="effect1_dropShadow_1753_1941"/>
<feBlend mode="normal" in="SourceGraphic" in2="effect1_dropShadow_1753_1941" result="shape"/>
</filter>
<filter id="filter1_d_1753_1941" x="7.41406" y="8.71875" width="20.2188" height="17.4766" filterUnits="userSpaceOnUse" color-interpolation-filters="sRGB">
<feFlood flood-opacity="0" result="BackgroundImageFix"/>
<feColorMatrix in="SourceAlpha" type="matrix" values="0 0 0 0 0 0 0 0 0 0 0 0 0 0 0 0 0 0 127 0" result="hardAlpha"/>
<feOffset dy="4"/>
<feGaussianBlur stdDeviation="2"/>
<feComposite in2="hardAlpha" operator="out"/>
<feColorMatrix type="matrix" values="0 0 0 0 0 0 0 0 0 0 0 0 0 0 0 0 0 0 0.25 0"/>
<feBlend mode="normal" in2="BackgroundImageFix" result="effect1_dropShadow_1753_1941"/>
<feBlend mode="normal" in="SourceGraphic" in2="effect1_dropShadow_1753_1941" result="shape"/>
</filter>
</defs>
</svg>
