<svg width="36" height="33" viewBox="0 0 36 33" fill="none" xmlns="http://www.w3.org/2000/svg">
<g filter="url(#filter0_d_1747_417)">
<rect x="4" width="28" height="27" rx="13.5" fill="white"/>
<g filter="url(#filter1_d_1747_417)">
<path d="M13.301 11.071L11.416 12.436V10.538L13.626 8.913H15.277V18H13.301V11.071ZM19.1232 18.195C18.5165 18.195 18.0052 18.13 17.5892 18V16.362C17.9792 16.544 18.4385 16.635 18.9672 16.635C19.7125 16.635 20.3148 16.4227 20.7742 15.998C21.2335 15.5647 21.5108 14.9363 21.6062 14.113C21.3548 14.373 21.0385 14.5723 20.6572 14.711C20.2845 14.841 19.8685 14.906 19.4092 14.906C18.8112 14.906 18.2825 14.7847 17.8232 14.542C17.3638 14.2993 17.0042 13.9527 16.7442 13.502C16.4928 13.0427 16.3672 12.5053 16.3672 11.89C16.3672 11.2833 16.5058 10.7417 16.7832 10.265C17.0605 9.77967 17.4678 9.40267 18.0052 9.134C18.5425 8.85667 19.1925 8.718 19.9552 8.718C20.6918 8.718 21.3375 8.88267 21.8922 9.212C22.4468 9.53267 22.8758 10.0007 23.1792 10.616C23.4825 11.2227 23.6342 11.9507 23.6342 12.8C23.6342 13.944 23.4478 14.9233 23.0752 15.738C22.7025 16.544 22.1782 17.155 21.5022 17.571C20.8262 17.987 20.0332 18.195 19.1232 18.195ZM19.9552 13.424C20.4058 13.424 20.7828 13.2723 21.0862 12.969C21.3895 12.6657 21.5412 12.2843 21.5412 11.825C21.5412 11.383 21.3895 11.006 21.0862 10.694C20.7915 10.382 20.4145 10.226 19.9552 10.226C19.4958 10.226 19.1145 10.3777 18.8112 10.681C18.5165 10.9757 18.3692 11.357 18.3692 11.825C18.3692 12.2843 18.5165 12.6657 18.8112 12.969C19.1145 13.2723 19.4958 13.424 19.9552 13.424Z" fill="black"/>
</g>
</g>
<defs>
<filter id="filter0_d_1747_417" x="0" y="0" width="36" height="35" filterUnits="userSpaceOnUse" color-interpolation-filters="sRGB">
<feFlood flood-opacity="0" result="BackgroundImageFix"/>
<feColorMatrix in="SourceAlpha" type="matrix" values="0 0 0 0 0 0 0 0 0 0 0 0 0 0 0 0 0 0 127 0" result="hardAlpha"/>
<feOffset dy="4"/>
<feGaussianBlur stdDeviation="2"/>
<feComposite in2="hardAlpha" operator="out"/>
<feColorMatrix type="matrix" values="0 0 0 0 0 0 0 0 0 0 0 0 0 0 0 0 0 0 0.25 0"/>
<feBlend mode="normal" in2="BackgroundImageFix" result="effect1_dropShadow_1747_417"/>
<feBlend mode="normal" in="SourceGraphic" in2="effect1_dropShadow_1747_417" result="shape"/>
</filter>
<filter id="filter1_d_1747_417" x="7.41406" y="8.71875" width="20.2188" height="17.4766" filterUnits="userSpaceOnUse" color-interpolation-filters="sRGB">
<feFlood flood-opacity="0" result="BackgroundImageFix"/>
<feColorMatrix in="SourceAlpha" type="matrix" values="0 0 0 0 0 0 0 0 0 0 0 0 0 0 0 0 0 0 127 0" result="hardAlpha"/>
<feOffset dy="4"/>
<feGaussianBlur stdDeviation="2"/>
<feComposite in2="hardAlpha" operator="out"/>
<feColorMatrix type="matrix" values="0 0 0 0 0 0 0 0 0 0 0 0 0 0 0 0 0 0 0.25 0"/>
<feBlend mode="normal" in2="BackgroundImageFix" result="effect1_dropShadow_1747_417"/>
<feBlend mode="normal" in="SourceGraphic" in2="effect1_dropShadow_1747_417" result="shape"/>
</filter>
</defs>
</svg>
