<svg width="36" height="33" viewBox="0 0 36 33" fill="none" xmlns="http://www.w3.org/2000/svg">
<g filter="url(#filter0_d_1747_550)">
<rect x="4" width="28" height="27" rx="13.5" fill="white"/>
<g filter="url(#filter1_d_1747_550)">
<path d="M10.416 16.817L12.041 15.335C12.3703 15.0403 12.6173 14.8237 12.782 14.685C13.276 14.2517 13.653 13.905 13.913 13.645C14.173 13.3763 14.3853 13.099 14.55 12.813C14.7147 12.527 14.797 12.2323 14.797 11.929C14.797 11.5043 14.6713 11.1707 14.42 10.928C14.1773 10.6853 13.796 10.564 13.276 10.564C12.8427 10.564 12.4093 10.642 11.976 10.798C11.5427 10.9453 11.144 11.1577 10.78 11.435V9.55C11.1613 9.28133 11.5947 9.07767 12.08 8.939C12.574 8.79167 13.107 8.718 13.679 8.718C14.3377 8.718 14.9053 8.83933 15.382 9.082C15.8587 9.32467 16.2227 9.667 16.474 10.109C16.7253 10.551 16.851 11.058 16.851 11.63C16.851 12.2713 16.6863 12.8433 16.357 13.346C16.0363 13.84 15.512 14.425 14.784 15.101L13.393 16.375H17.163V18H10.416V16.817ZM22.0511 18.195C21.2278 18.195 20.5084 18.0087 19.8931 17.636C19.2864 17.2547 18.8184 16.7087 18.4891 15.998C18.1598 15.2787 17.9951 14.4337 17.9951 13.463C17.9951 12.4837 18.1554 11.6387 18.4761 10.928C18.8054 10.2173 19.2734 9.67133 19.8801 9.29C20.4954 8.90867 21.2191 8.718 22.0511 8.718C22.8831 8.718 23.6024 8.90867 24.2091 9.29C24.8158 9.67133 25.2794 10.2173 25.6001 10.928C25.9294 11.6387 26.0941 12.4837 26.0941 13.463C26.0941 14.4337 25.9294 15.2787 25.6001 15.998C25.2708 16.7087 24.8028 17.2547 24.1961 17.636C23.5894 18.0087 22.8744 18.195 22.0511 18.195ZM22.0511 16.375C22.7011 16.375 23.2038 16.1193 23.5591 15.608C23.9144 15.0967 24.0921 14.3903 24.0921 13.489C24.0921 12.579 23.9144 11.864 23.5591 11.344C23.2124 10.824 22.7098 10.564 22.0511 10.564C21.3924 10.564 20.8854 10.824 20.5301 11.344C20.1834 11.864 20.0101 12.579 20.0101 13.489C20.0101 14.3903 20.1878 15.0967 20.5431 15.608C20.8984 16.1193 21.4011 16.375 22.0511 16.375Z" fill="black"/>
</g>
</g>
<defs>
<filter id="filter0_d_1747_550" x="0" y="0" width="36" height="35" filterUnits="userSpaceOnUse" color-interpolation-filters="sRGB">
<feFlood flood-opacity="0" result="BackgroundImageFix"/>
<feColorMatrix in="SourceAlpha" type="matrix" values="0 0 0 0 0 0 0 0 0 0 0 0 0 0 0 0 0 0 127 0" result="hardAlpha"/>
<feOffset dy="4"/>
<feGaussianBlur stdDeviation="2"/>
<feComposite in2="hardAlpha" operator="out"/>
<feColorMatrix type="matrix" values="0 0 0 0 0 0 0 0 0 0 0 0 0 0 0 0 0 0 0.25 0"/>
<feBlend mode="normal" in2="BackgroundImageFix" result="effect1_dropShadow_1747_550"/>
<feBlend mode="normal" in="SourceGraphic" in2="effect1_dropShadow_1747_550" result="shape"/>
</filter>
<filter id="filter1_d_1747_550" x="6.41406" y="8.71875" width="23.6797" height="17.4766" filterUnits="userSpaceOnUse" color-interpolation-filters="sRGB">
<feFlood flood-opacity="0" result="BackgroundImageFix"/>
<feColorMatrix in="SourceAlpha" type="matrix" values="0 0 0 0 0 0 0 0 0 0 0 0 0 0 0 0 0 0 127 0" result="hardAlpha"/>
<feOffset dy="4"/>
<feGaussianBlur stdDeviation="2"/>
<feComposite in2="hardAlpha" operator="out"/>
<feColorMatrix type="matrix" values="0 0 0 0 0 0 0 0 0 0 0 0 0 0 0 0 0 0 0.25 0"/>
<feBlend mode="normal" in2="BackgroundImageFix" result="effect1_dropShadow_1747_550"/>
<feBlend mode="normal" in="SourceGraphic" in2="effect1_dropShadow_1747_550" result="shape"/>
</filter>
</defs>
</svg>
