<svg width="36" height="33" viewBox="0 0 36 33" fill="none" xmlns="http://www.w3.org/2000/svg">
<g filter="url(#filter0_d_1747_920)">
<rect x="4" width="28" height="27" rx="13.5" fill="white"/>
<g filter="url(#filter1_d_1747_920)">
<path d="M11.416 16.817L13.041 15.335C13.3703 15.0403 13.6173 14.8237 13.782 14.685C14.276 14.2517 14.653 13.905 14.913 13.645C15.173 13.3763 15.3853 13.099 15.55 12.813C15.7147 12.527 15.797 12.2323 15.797 11.929C15.797 11.5043 15.6713 11.1707 15.42 10.928C15.1773 10.6853 14.796 10.564 14.276 10.564C13.8427 10.564 13.4093 10.642 12.976 10.798C12.5427 10.9453 12.144 11.1577 11.78 11.435V9.55C12.1613 9.28133 12.5947 9.07767 13.08 8.939C13.574 8.79167 14.107 8.718 14.679 8.718C15.3377 8.718 15.9053 8.83933 16.382 9.082C16.8587 9.32467 17.2227 9.667 17.474 10.109C17.7253 10.551 17.851 11.058 17.851 11.63C17.851 12.2713 17.6863 12.8433 17.357 13.346C17.0363 13.84 16.512 14.425 15.784 15.101L14.393 16.375H18.163V18H11.416V16.817ZM21.9201 18.195C21.3568 18.195 20.8194 18.1473 20.3081 18.052C19.7968 17.9653 19.3591 17.831 18.9951 17.649V16.115C19.8358 16.4963 20.7154 16.687 21.6341 16.687C22.3101 16.687 22.8128 16.5743 23.1421 16.349C23.4801 16.1237 23.6491 15.803 23.6491 15.387C23.6491 14.945 23.4844 14.633 23.1551 14.451C22.8258 14.2603 22.3188 14.165 21.6341 14.165H20.4381V12.657H21.5821C22.1454 12.657 22.5831 12.5573 22.8951 12.358C23.2158 12.15 23.3761 11.8467 23.3761 11.448C23.3761 11.0493 23.2331 10.746 22.9471 10.538C22.6611 10.33 22.2624 10.226 21.7511 10.226C21.2658 10.226 20.8151 10.2867 20.3991 10.408C19.9918 10.5207 19.5931 10.7027 19.2031 10.954V9.394C19.5931 9.17733 20.0308 9.01267 20.5161 8.9C21.0014 8.77867 21.5041 8.718 22.0241 8.718C23.1594 8.718 24.0044 8.952 24.5591 9.42C25.1138 9.87933 25.3911 10.5293 25.3911 11.37C25.3911 11.786 25.2828 12.176 25.0661 12.54C24.8581 12.8953 24.5461 13.1813 24.1301 13.398C25.1441 13.7707 25.6511 14.464 25.6511 15.478C25.6511 17.2893 24.4074 18.195 21.9201 18.195Z" fill="black"/>
</g>
</g>
<defs>
<filter id="filter0_d_1747_920" x="0" y="0" width="36" height="35" filterUnits="userSpaceOnUse" color-interpolation-filters="sRGB">
<feFlood flood-opacity="0" result="BackgroundImageFix"/>
<feColorMatrix in="SourceAlpha" type="matrix" values="0 0 0 0 0 0 0 0 0 0 0 0 0 0 0 0 0 0 127 0" result="hardAlpha"/>
<feOffset dy="4"/>
<feGaussianBlur stdDeviation="2"/>
<feComposite in2="hardAlpha" operator="out"/>
<feColorMatrix type="matrix" values="0 0 0 0 0 0 0 0 0 0 0 0 0 0 0 0 0 0 0.25 0"/>
<feBlend mode="normal" in2="BackgroundImageFix" result="effect1_dropShadow_1747_920"/>
<feBlend mode="normal" in="SourceGraphic" in2="effect1_dropShadow_1747_920" result="shape"/>
</filter>
<filter id="filter1_d_1747_920" x="7.41406" y="8.71875" width="22.2383" height="17.4766" filterUnits="userSpaceOnUse" color-interpolation-filters="sRGB">
<feFlood flood-opacity="0" result="BackgroundImageFix"/>
<feColorMatrix in="SourceAlpha" type="matrix" values="0 0 0 0 0 0 0 0 0 0 0 0 0 0 0 0 0 0 127 0" result="hardAlpha"/>
<feOffset dy="4"/>
<feGaussianBlur stdDeviation="2"/>
<feComposite in2="hardAlpha" operator="out"/>
<feColorMatrix type="matrix" values="0 0 0 0 0 0 0 0 0 0 0 0 0 0 0 0 0 0 0.25 0"/>
<feBlend mode="normal" in2="BackgroundImageFix" result="effect1_dropShadow_1747_920"/>
<feBlend mode="normal" in="SourceGraphic" in2="effect1_dropShadow_1747_920" result="shape"/>
</filter>
</defs>
</svg>
