<svg width="36" height="33" viewBox="0 0 36 33" fill="none" xmlns="http://www.w3.org/2000/svg">
<g filter="url(#filter0_d_1747_1021)">
<rect x="4" width="28" height="27" rx="13.5" fill="white"/>
<g filter="url(#filter1_d_1747_1021)">
<path d="M12.416 16.817L14.041 15.335C14.3703 15.0403 14.6173 14.8237 14.782 14.685C15.276 14.2517 15.653 13.905 15.913 13.645C16.173 13.3763 16.3853 13.099 16.55 12.813C16.7147 12.527 16.797 12.2323 16.797 11.929C16.797 11.5043 16.6713 11.1707 16.42 10.928C16.1773 10.6853 15.796 10.564 15.276 10.564C14.8427 10.564 14.4093 10.642 13.976 10.798C13.5427 10.9453 13.144 11.1577 12.78 11.435V9.55C13.1613 9.28133 13.5947 9.07767 14.08 8.939C14.574 8.79167 15.107 8.718 15.679 8.718C16.3377 8.718 16.9053 8.83933 17.382 9.082C17.8587 9.32467 18.2227 9.667 18.474 10.109C18.7253 10.551 18.851 11.058 18.851 11.63C18.851 12.2713 18.6863 12.8433 18.357 13.346C18.0363 13.84 17.512 14.425 16.784 15.101L15.393 16.375H19.163V18H12.416V16.817ZM23.9991 15.985H19.7351V14.789L24.0771 8.913H26.0271V14.464H27.3661V15.985H26.0271V18H23.9991V15.985ZM24.2851 14.464V11.266L21.9451 14.464H24.2851Z" fill="black"/>
</g>
</g>
<defs>
<filter id="filter0_d_1747_1021" x="0" y="0" width="36" height="35" filterUnits="userSpaceOnUse" color-interpolation-filters="sRGB">
<feFlood flood-opacity="0" result="BackgroundImageFix"/>
<feColorMatrix in="SourceAlpha" type="matrix" values="0 0 0 0 0 0 0 0 0 0 0 0 0 0 0 0 0 0 127 0" result="hardAlpha"/>
<feOffset dy="4"/>
<feGaussianBlur stdDeviation="2"/>
<feComposite in2="hardAlpha" operator="out"/>
<feColorMatrix type="matrix" values="0 0 0 0 0 0 0 0 0 0 0 0 0 0 0 0 0 0 0.25 0"/>
<feBlend mode="normal" in2="BackgroundImageFix" result="effect1_dropShadow_1747_1021"/>
<feBlend mode="normal" in="SourceGraphic" in2="effect1_dropShadow_1747_1021" result="shape"/>
</filter>
<filter id="filter1_d_1747_1021" x="8.41406" y="8.71875" width="22.9531" height="17.2812" filterUnits="userSpaceOnUse" color-interpolation-filters="sRGB">
<feFlood flood-opacity="0" result="BackgroundImageFix"/>
<feColorMatrix in="SourceAlpha" type="matrix" values="0 0 0 0 0 0 0 0 0 0 0 0 0 0 0 0 0 0 127 0" result="hardAlpha"/>
<feOffset dy="4"/>
<feGaussianBlur stdDeviation="2"/>
<feComposite in2="hardAlpha" operator="out"/>
<feColorMatrix type="matrix" values="0 0 0 0 0 0 0 0 0 0 0 0 0 0 0 0 0 0 0.25 0"/>
<feBlend mode="normal" in2="BackgroundImageFix" result="effect1_dropShadow_1747_1021"/>
<feBlend mode="normal" in="SourceGraphic" in2="effect1_dropShadow_1747_1021" result="shape"/>
</filter>
</defs>
</svg>
