<svg width="36" height="33" viewBox="0 0 36 33" fill="none" xmlns="http://www.w3.org/2000/svg">
<g filter="url(#filter0_d_1747_1370)">
<rect x="4" width="28" height="27" rx="13.5" fill="white"/>
<g filter="url(#filter1_d_1747_1370)">
<path d="M10.416 16.817L12.041 15.335C12.3703 15.0403 12.6173 14.8237 12.782 14.685C13.276 14.2517 13.653 13.905 13.913 13.645C14.173 13.3763 14.3853 13.099 14.55 12.813C14.7147 12.527 14.797 12.2323 14.797 11.929C14.797 11.5043 14.6713 11.1707 14.42 10.928C14.1773 10.6853 13.796 10.564 13.276 10.564C12.8427 10.564 12.4093 10.642 11.976 10.798C11.5427 10.9453 11.144 11.1577 10.78 11.435V9.55C11.1613 9.28133 11.5947 9.07767 12.08 8.939C12.574 8.79167 13.107 8.718 13.679 8.718C14.3377 8.718 14.9053 8.83933 15.382 9.082C15.8587 9.32467 16.2227 9.667 16.474 10.109C16.7253 10.551 16.851 11.058 16.851 11.63C16.851 12.2713 16.6863 12.8433 16.357 13.346C16.0363 13.84 15.512 14.425 14.784 15.101L13.393 16.375H17.163V18H10.416V16.817ZM21.5961 18.195C20.4954 18.195 19.6201 17.9567 18.9701 17.48C18.3201 17.0033 17.9951 16.323 17.9951 15.439C17.9951 14.9017 18.1251 14.451 18.3851 14.087C18.6451 13.7143 18.9918 13.4457 19.4251 13.281C19.0698 13.0817 18.7924 12.8087 18.5931 12.462C18.4024 12.1153 18.3071 11.7297 18.3071 11.305C18.3071 10.499 18.6018 9.86633 19.1911 9.407C19.7891 8.94767 20.5908 8.718 21.5961 8.718C22.6014 8.718 23.3988 8.94767 23.9881 9.407C24.5774 9.86633 24.8721 10.499 24.8721 11.305C24.8721 11.7383 24.7724 12.1283 24.5731 12.475C24.3824 12.813 24.1094 13.0817 23.7541 13.281C24.1874 13.4457 24.5341 13.7143 24.7941 14.087C25.0541 14.451 25.1841 14.9017 25.1841 15.439C25.1841 16.323 24.8591 17.0033 24.2091 17.48C23.5678 17.9567 22.6968 18.195 21.5961 18.195ZM21.5961 12.774C22.0034 12.774 22.3371 12.657 22.5971 12.423C22.8571 12.189 22.9871 11.8857 22.9871 11.513C22.9871 11.1317 22.8571 10.824 22.5971 10.59C22.3371 10.3473 22.0034 10.226 21.5961 10.226C21.1888 10.226 20.8551 10.3473 20.5951 10.59C20.3438 10.824 20.2181 11.1317 20.2181 11.513C20.2181 11.8857 20.3438 12.189 20.5951 12.423C20.8551 12.657 21.1888 12.774 21.5961 12.774ZM21.5961 16.713C22.0728 16.713 22.4541 16.583 22.7401 16.323C23.0348 16.063 23.1821 15.712 23.1821 15.27C23.1821 14.8367 23.0348 14.4943 22.7401 14.243C22.4454 13.983 22.0641 13.853 21.5961 13.853C21.1281 13.853 20.7468 13.983 20.4521 14.243C20.1574 14.4943 20.0101 14.8367 20.0101 15.27C20.0101 15.712 20.1531 16.063 20.4391 16.323C20.7338 16.583 21.1194 16.713 21.5961 16.713Z" fill="black"/>
</g>
</g>
<defs>
<filter id="filter0_d_1747_1370" x="0" y="0" width="36" height="35" filterUnits="userSpaceOnUse" color-interpolation-filters="sRGB">
<feFlood flood-opacity="0" result="BackgroundImageFix"/>
<feColorMatrix in="SourceAlpha" type="matrix" values="0 0 0 0 0 0 0 0 0 0 0 0 0 0 0 0 0 0 127 0" result="hardAlpha"/>
<feOffset dy="4"/>
<feGaussianBlur stdDeviation="2"/>
<feComposite in2="hardAlpha" operator="out"/>
<feColorMatrix type="matrix" values="0 0 0 0 0 0 0 0 0 0 0 0 0 0 0 0 0 0 0.25 0"/>
<feBlend mode="normal" in2="BackgroundImageFix" result="effect1_dropShadow_1747_1370"/>
<feBlend mode="normal" in="SourceGraphic" in2="effect1_dropShadow_1747_1370" result="shape"/>
</filter>
<filter id="filter1_d_1747_1370" x="6.41406" y="8.71875" width="22.7695" height="17.4766" filterUnits="userSpaceOnUse" color-interpolation-filters="sRGB">
<feFlood flood-opacity="0" result="BackgroundImageFix"/>
<feColorMatrix in="SourceAlpha" type="matrix" values="0 0 0 0 0 0 0 0 0 0 0 0 0 0 0 0 0 0 127 0" result="hardAlpha"/>
<feOffset dy="4"/>
<feGaussianBlur stdDeviation="2"/>
<feComposite in2="hardAlpha" operator="out"/>
<feColorMatrix type="matrix" values="0 0 0 0 0 0 0 0 0 0 0 0 0 0 0 0 0 0 0.25 0"/>
<feBlend mode="normal" in2="BackgroundImageFix" result="effect1_dropShadow_1747_1370"/>
<feBlend mode="normal" in="SourceGraphic" in2="effect1_dropShadow_1747_1370" result="shape"/>
</filter>
</defs>
</svg>
