<svg width="157" height="157" viewBox="0 0 157 157" fill="none" xmlns="http://www.w3.org/2000/svg">
<rect width="157" height="157" fill="url(#paint0_linear_1728_794)"/>
<path d="M30.9104 14.5111C23.9326 16.9533 18.3504 22.1168 15.2104 29.0248L13.6055 32.444V78.4973V124.551L15.4895 128.528C17.8619 133.692 23.3046 139.134 28.4681 141.507L32.4455 143.391H78.4988H124.552L128.529 141.507C133.693 139.134 139.136 133.692 141.508 128.528L143.392 124.551V78.4973V32.444L141.089 27.7688C138.438 22.3262 134.112 18.1395 128.39 15.4182L124.552 13.604L79.5455 13.4644C37.6788 13.3248 34.2597 13.3946 30.9104 14.5111ZM123.924 27.7688C127.622 29.932 130.274 34.1186 130.832 38.6542C131.041 40.608 131.181 59.9364 131.041 81.6373C130.832 117.154 130.693 121.271 129.646 123.225C127.901 126.365 123.924 129.644 120.714 130.482C118.9 130.97 104.526 131.18 76.9637 131.04L35.9344 130.831L32.9339 129.086C31.0499 128.04 29.1659 126.156 28.0495 124.202L26.1655 121.062V78.4973V35.9328L27.9099 32.9324C29.7241 29.7226 32.9339 27.3502 36.5624 26.4431C37.7486 26.164 57.2864 25.9546 79.8944 26.0244L121.063 26.164L123.924 27.7688Z" fill="white"/>
<path d="M39.5627 39.5601C39.2836 39.7694 39.0742 47.1659 39.0742 55.9579V71.8672H55.472H71.8698V55.4694V39.0716H55.9604C47.1684 39.0716 39.772 39.281 39.5627 39.5601Z" fill="white"/>
<path d="M85.1289 55.4694V71.8672H101.527H117.924L117.785 55.609L117.576 39.4205L101.387 39.2112L85.1289 39.0716V55.4694Z" fill="white"/>
<path d="M39.2138 101.315L39.4231 117.573L55.6813 117.782L71.8698 117.922V101.524V85.1263H55.472H39.0742L39.2138 101.315Z" fill="white"/>
<path d="M85.1289 101.524V117.922L101.387 117.782L117.576 117.573L117.785 101.315L117.924 85.1263H101.527H85.1289V101.524Z" fill="white"/>
<defs>
<linearGradient id="paint0_linear_1728_794" x1="104" y1="106" x2="19" y2="17" gradientUnits="userSpaceOnUse">
<stop stop-color="#45BAAA"/>
<stop offset="1" stop-color="#48A9CD"/>
</linearGradient>
</defs>
</svg>
