<svg width="157" height="157" viewBox="0 0 157 157" fill="none" xmlns="http://www.w3.org/2000/svg">
<rect width="157" height="157" rx="78.5" fill="white"/>
<rect x="27.3945" y="27.3906" width="102.214" height="102.214" rx="51.1071" fill="url(#paint0_linear_1733_817)"/>
<path d="M94.5359 110.569C91.8631 110.569 89.5912 109.633 87.7203 107.762C85.8494 105.891 84.9139 103.619 84.9139 100.947C84.9139 100.626 84.9941 99.8776 85.1544 98.7015L62.6229 85.5514C61.7676 86.3533 60.7786 86.9819 59.6561 87.4374C58.5335 87.8928 57.3307 88.1195 56.0478 88.1173C53.375 88.1173 51.1032 87.1818 49.2322 85.3109C47.3613 83.4399 46.4258 81.1681 46.4258 78.4953C46.4258 75.8225 47.3613 73.5506 49.2322 71.6797C51.1032 69.8087 53.375 68.8733 56.0478 68.8733C57.3307 68.8733 58.5335 69.101 59.6561 69.5564C60.7786 70.0119 61.7676 70.6394 62.6229 71.4391L85.1544 58.289C85.0475 57.9148 84.9812 57.5546 84.9556 57.2082C84.9299 56.8618 84.916 56.4737 84.9139 56.0439C84.9139 53.3711 85.8494 51.0992 87.7203 49.2283C89.5912 47.3573 91.8631 46.4219 94.5359 46.4219C97.2087 46.4219 99.4806 47.3573 101.351 49.2283C103.222 51.0992 104.158 53.3711 104.158 56.0439C104.158 58.7167 103.222 60.9886 101.351 62.8595C99.4806 64.7304 97.2087 65.6659 94.5359 65.6659C93.253 65.6659 92.0502 65.4382 90.9276 64.9828C89.8051 64.5273 88.8161 63.8997 87.9608 63.1L65.4293 76.2502C65.5362 76.6243 65.6035 76.9857 65.6313 77.3342C65.6591 77.6828 65.672 78.0698 65.6698 78.4953C65.6677 78.9208 65.6549 79.3089 65.6313 79.6596C65.6078 80.0102 65.5405 80.3705 65.4293 80.7404L87.9608 93.8905C88.8161 93.0887 89.8051 92.4611 90.9276 92.0078C92.0502 91.5545 93.253 91.3268 94.5359 91.3247C97.2087 91.3247 99.4806 92.2601 101.351 94.1311C103.222 96.002 104.158 98.2739 104.158 100.947C104.158 103.619 103.222 105.891 101.351 107.762C99.4806 109.633 97.2087 110.569 94.5359 110.569Z" fill="white"/>
<defs>
<linearGradient id="paint0_linear_1733_817" x1="95.1034" y1="96.4015" x2="39.7644" y2="38.4584" gradientUnits="userSpaceOnUse">
<stop stop-color="#45BAAA"/>
<stop offset="1" stop-color="#48A9CD"/>
</linearGradient>
</defs>
</svg>
