<svg width="477" height="212" viewBox="0 0 477 212" fill="none" xmlns="http://www.w3.org/2000/svg">
<path d="M6.48 17.9575H8.44L14.02 31.9375H11.94L10.54 28.4575H4.36L3 31.9375H0.9L6.48 17.9575ZM9.98 26.7575L7.46 20.2175L4.94 26.7575H9.98ZM16.2219 17.9575H22.6419C23.8819 17.9575 24.8419 18.2775 25.5219 18.9175C26.2019 19.5575 26.5419 20.4908 26.5419 21.7175C26.5419 22.4108 26.3752 23.0242 26.0419 23.5575C25.7219 24.0775 25.2952 24.4642 24.7619 24.7175C26.2552 25.1575 27.0019 26.2442 27.0019 27.9775C27.0019 28.7908 26.8219 29.4975 26.4619 30.0975C26.1152 30.6842 25.6352 31.1375 25.0219 31.4575C24.4085 31.7775 23.7285 31.9375 22.9819 31.9375H16.2219V17.9575ZM22.3819 23.9575C23.0352 23.9575 23.5485 23.7775 23.9219 23.4175C24.2952 23.0575 24.4819 22.5242 24.4819 21.8175C24.4819 21.0042 24.2952 20.4375 23.9219 20.1175C23.5619 19.7842 23.0019 19.6175 22.2419 19.6175H18.2619V23.9575H22.3819ZM22.5219 30.2775C23.3085 30.2775 23.9085 30.1042 24.3219 29.7575C24.7352 29.4108 24.9419 28.8175 24.9419 27.9775C24.9419 27.1375 24.7219 26.5375 24.2819 26.1775C23.8552 25.8175 23.2085 25.6375 22.3419 25.6375H18.2619V30.2775H22.5219ZM35.6623 32.2375C34.2757 32.2375 33.0223 31.9375 31.9023 31.3375C30.7823 30.7242 29.9023 29.8642 29.2623 28.7575C28.6223 27.6508 28.3023 26.3842 28.3023 24.9575C28.3023 23.5308 28.6223 22.2642 29.2623 21.1575C29.9023 20.0508 30.7823 19.1908 31.9023 18.5775C33.0223 17.9642 34.2757 17.6575 35.6623 17.6575C37.049 17.6575 38.3023 17.9642 39.4223 18.5775C40.5423 19.1908 41.4223 20.0508 42.0623 21.1575C42.7023 22.2642 43.0223 23.5308 43.0223 24.9575C43.0223 26.3842 42.7023 27.6508 42.0623 28.7575C41.4223 29.8642 40.5423 30.7242 39.4223 31.3375C38.3023 31.9375 37.049 32.2375 35.6623 32.2375ZM35.6623 30.3975C36.649 30.3975 37.5423 30.1775 38.3423 29.7375C39.1557 29.2842 39.7957 28.6508 40.2623 27.8375C40.729 27.0108 40.9623 26.0508 40.9623 24.9575C40.9623 23.8775 40.729 22.9308 40.2623 22.1175C39.809 21.2908 39.1823 20.6575 38.3823 20.2175C37.5823 19.7642 36.689 19.5375 35.7023 19.5375C34.7023 19.5375 33.7957 19.7575 32.9823 20.1975C32.1823 20.6375 31.5423 21.2708 31.0623 22.0975C30.5957 22.9242 30.3623 23.8775 30.3623 24.9575C30.3623 26.0508 30.5957 27.0108 31.0623 27.8375C31.529 28.6508 32.1623 29.2842 32.9623 29.7375C33.7757 30.1775 34.6757 30.3975 35.6623 30.3975ZM50.9058 32.2375C48.9991 32.2375 47.5591 31.7508 46.5858 30.7775C45.6124 29.7908 45.1258 28.4375 45.1258 26.7175V17.9575H47.1658V26.7975C47.1658 27.9842 47.4991 28.8842 48.1658 29.4975C48.8324 30.0975 49.7458 30.3975 50.9058 30.3975C52.0524 30.3975 52.9591 30.0975 53.6258 29.4975C54.2924 28.8842 54.6258 27.9842 54.6258 26.7975V17.9575H56.6658V26.7175C56.6658 28.4242 56.1791 29.7708 55.2058 30.7575C54.2324 31.7442 52.7991 32.2375 50.9058 32.2375ZM62.7111 19.6775H58.3711V17.9575H69.1111V19.6775H64.7711V31.9375H62.7111V19.6775ZM83.9917 32.2375C82.0851 32.2375 80.6451 31.7508 79.6717 30.7775C78.6984 29.7908 78.2117 28.4375 78.2117 26.7175V17.9575H80.2517V26.7975C80.2517 27.9842 80.5851 28.8842 81.2517 29.4975C81.9184 30.0975 82.8317 30.3975 83.9917 30.3975C85.1384 30.3975 86.0451 30.0975 86.7117 29.4975C87.3784 28.8842 87.7117 27.9842 87.7117 26.7975V17.9575H89.7517V26.7175C89.7517 28.4242 89.2651 29.7708 88.2917 30.7575C87.3184 31.7442 85.8851 32.2375 83.9917 32.2375ZM96.137 32.2375C95.337 32.2375 94.5437 32.1642 93.757 32.0175C92.9837 31.8842 92.3504 31.6975 91.857 31.4575V29.6175C93.137 30.2175 94.517 30.5175 95.997 30.5175C98.077 30.5175 99.117 29.8175 99.117 28.4175C99.117 27.9375 99.0037 27.5508 98.777 27.2575C98.5504 26.9642 98.2237 26.7108 97.797 26.4975C97.3704 26.2708 96.677 25.9642 95.717 25.5775C94.397 25.0442 93.4437 24.4575 92.857 23.8175C92.2704 23.1775 91.977 22.3708 91.977 21.3975C91.977 20.6642 92.177 20.0175 92.577 19.4575C92.977 18.8842 93.537 18.4442 94.257 18.1375C94.977 17.8175 95.8037 17.6575 96.737 17.6575C97.497 17.6575 98.1837 17.7175 98.797 17.8375C99.4104 17.9575 100.01 18.1508 100.597 18.4175V20.1775C99.437 19.6575 98.2637 19.3975 97.077 19.3975C96.117 19.3975 95.3837 19.5708 94.877 19.9175C94.3704 20.2642 94.117 20.7575 94.117 21.3975C94.117 21.8375 94.2237 22.2108 94.437 22.5175C94.6637 22.8108 94.9904 23.0775 95.417 23.3175C95.857 23.5442 96.5037 23.8308 97.357 24.1775C98.3037 24.5642 99.0504 24.9308 99.597 25.2775C100.144 25.6242 100.557 26.0508 100.837 26.5575C101.13 27.0508 101.277 27.6708 101.277 28.4175C101.277 29.6308 100.844 30.5708 99.977 31.2375C99.1104 31.9042 97.8304 32.2375 96.137 32.2375Z" fill="black"/>
<line x1="109" y1="24.5" x2="431" y2="24.5" stroke="black" stroke-dasharray="2 2"/>
<path d="M451.72 29.3C450.52 29.3 449.48 29.0067 448.6 28.42C447.733 27.8333 447.067 26.9933 446.6 25.9C446.133 24.8067 445.9 23.5133 445.9 22.02C445.9 20.5267 446.127 19.2333 446.58 18.14C447.047 17.0333 447.713 16.1867 448.58 15.6C449.46 15.0133 450.507 14.72 451.72 14.72C452.933 14.72 453.973 15.0133 454.84 15.6C455.72 16.1867 456.387 17.0333 456.84 18.14C457.307 19.2333 457.54 20.5267 457.54 22.02C457.54 23.5133 457.307 24.8067 456.84 25.9C456.373 26.9933 455.7 27.8333 454.82 28.42C453.953 29.0067 452.92 29.3 451.72 29.3ZM451.72 27.5C452.907 27.5 453.833 27.0133 454.5 26.04C455.18 25.0533 455.52 23.72 455.52 22.04C455.52 20.36 455.187 19.0267 454.52 18.04C453.853 17.0533 452.92 16.56 451.72 16.56C450.52 16.56 449.587 17.0533 448.92 18.04C448.253 19.0267 447.92 20.36 447.92 22.04C447.92 23.72 448.253 25.0533 448.92 26.04C449.6 27.0133 450.533 27.5 451.72 27.5ZM462.358 17.22L459.338 19.4V17.46L462.638 15.02H464.398V29H462.358V17.22Z" fill="black"/>
<path d="M447.664 1.28189C448.542 0.934679 450.031 0.480641 450.989 0.266976C452.026 0.0533107 453.675 -0.0535219 455.111 0.0266026C456.441 0.0800189 458.143 0.320392 458.914 0.534057C459.659 0.774431 460.297 1.09493 460.297 1.22847C460.297 1.38872 459.287 1.49555 457.771 1.49555C456.388 1.49555 454.367 1.68251 453.329 1.92288C452.265 2.16325 450.43 2.80425 449.26 3.36512C448.09 3.89928 446.361 4.9409 445.43 5.66202C444.473 6.38314 443.116 7.69184 442.398 8.57321C441.68 9.45458 440.776 10.7099 440.377 11.3776C440.004 12.0453 439.419 13.3273 439.1 14.262C438.754 15.1701 438.356 16.9863 438.223 18.3217C438.01 20.2447 438.036 21.2062 438.382 23.0757C438.595 24.3577 439.1 26.1739 439.499 27.1354C439.898 28.0969 440.776 29.6459 441.441 30.6074C442.132 31.5689 443.223 32.8509 443.914 33.4919C444.579 34.1062 445.776 35.0143 446.521 35.5217C447.292 36.0025 448.808 36.7503 449.872 37.1776C450.936 37.605 451.787 38.0323 451.787 38.1658C451.787 38.2727 451.627 38.3528 451.468 38.3528C451.281 38.3528 450.217 38.059 449.127 37.6851C448.037 37.3379 446.228 36.4565 445.138 35.7354C444.047 35.0143 442.451 33.7056 441.6 32.8509C440.776 31.9962 439.845 30.9279 439.526 30.4739C439.233 30.0198 438.648 29.0049 438.249 28.2037C437.824 27.4024 437.185 25.8801 436.866 24.8652C436.308 23.2627 436.228 22.4881 436.228 19.2565C436.228 16.1049 436.334 15.1968 436.866 13.5142C437.185 12.4192 437.877 10.7366 438.382 9.77507C438.887 8.81358 439.792 7.42476 440.403 6.67693C441.042 5.90239 442.079 4.83407 442.744 4.29991C443.409 3.73903 444.419 2.99121 445.005 2.61729C445.59 2.24338 446.787 1.6558 447.664 1.28189Z" fill="url(#paint0_linear_1778_708)"/>
<path d="M448.994 4.13966C450.164 3.57879 452.026 2.85767 453.116 2.56388C454.739 2.13655 455.723 2.05642 458.303 2.13655C461.016 2.21667 461.893 2.35021 464.021 3.07133C465.51 3.55208 467.372 4.43345 468.542 5.20798C469.633 5.90239 471.255 7.26451 472.133 8.226C473.011 9.1875 474.101 10.6564 474.58 11.5378C475.058 12.3925 475.67 13.8347 475.989 14.7161C476.282 15.5974 476.654 17.2266 476.84 18.3217C477.053 19.8173 477.053 20.8322 476.84 22.3279C476.654 23.4229 476.415 24.785 476.255 25.3459C476.122 25.8801 475.883 26.3341 475.723 26.3341C475.564 26.3341 475.457 25.3993 475.457 24.0639C475.457 22.8086 475.271 20.859 475.032 19.7372C474.792 18.5888 474.367 17.0664 474.074 16.3186C473.782 15.5974 473.037 14.1285 472.399 13.1136C471.761 12.0987 470.324 10.3359 469.154 9.24091C467.798 7.9055 466.361 6.86389 464.952 6.11606C463.782 5.50177 461.973 4.80736 460.962 4.56699C459.925 4.32661 458.063 4.13966 456.707 4.13966C455.404 4.16636 453.542 4.35332 452.585 4.59369C451.627 4.83407 450.271 5.31481 449.526 5.63531C448.808 5.95581 447.478 6.70364 446.6 7.29122C445.723 7.9055 444.446 8.97383 443.755 9.69495C443.09 10.3894 442.026 11.7515 441.441 12.713C440.829 13.6745 440.058 15.1968 439.739 16.1316C439.419 17.0397 439.074 17.7875 438.967 17.7875C438.834 17.7875 438.754 17.6273 438.754 17.467C438.754 17.2801 438.941 16.4521 439.18 15.6509C439.419 14.8496 440.004 13.4074 440.51 12.4459C441.015 11.4844 441.946 10.0422 442.611 9.24091C443.276 8.43967 444.499 7.18438 445.324 6.48997C446.175 5.79556 447.824 4.72724 448.994 4.13966Z" fill="url(#paint1_linear_1778_708)"/>
<path d="M460.244 5.52848C459.686 5.36823 459.234 5.10115 459.26 4.9409C459.287 4.75394 459.579 4.72724 460.111 4.83407C460.59 4.9409 461.734 5.31481 462.691 5.68873C463.649 6.03593 465.191 6.86389 466.149 7.50488C467.106 8.14588 468.542 9.34774 469.367 10.2291C470.191 11.0838 471.308 12.4993 471.867 13.3807C472.425 14.262 473.17 15.6509 473.489 16.4521C473.808 17.2534 474.287 18.936 474.553 20.1912C474.872 21.8472 474.952 23.1024 474.846 24.8652C474.739 26.2006 474.42 28.177 474.128 29.272C473.808 30.3671 473.064 32.2366 472.452 33.4118C471.654 34.9341 470.723 36.1627 469.207 37.6851C467.771 39.154 466.468 40.1422 465.218 40.8099C464.207 41.3441 462.452 42.0652 461.361 42.3857C459.819 42.8665 458.755 43 456.574 43C454.739 43 453.249 42.8398 452.239 42.546C451.414 42.3056 450.723 42.0118 450.723 41.905C450.723 41.7714 452.186 41.6112 453.968 41.5311C456.68 41.3975 457.638 41.2373 459.633 40.5429C460.962 40.0621 462.691 39.2876 463.489 38.8335C464.287 38.3528 466.042 36.8571 467.372 35.5484C469.34 33.5987 469.979 32.7174 470.909 30.8745C471.521 29.6192 472.186 27.7497 472.399 26.7347C472.612 25.7198 472.798 23.9571 472.798 22.8621C472.798 21.767 472.612 20.0043 472.399 18.9894C472.186 17.9745 471.601 16.2652 471.096 15.2502C470.617 14.2353 469.659 12.6328 468.968 11.7248C468.303 10.79 467.053 9.48128 466.228 8.81358C465.377 8.14588 463.915 7.21109 462.957 6.73035C462 6.2496 460.776 5.71544 460.244 5.52848Z" fill="url(#paint2_linear_1778_708)"/>
<path d="M434.233 19.6571C434.393 18.6956 434.659 17.654 434.792 17.3335C434.925 16.9863 435.111 16.7192 435.217 16.7192C435.35 16.7192 435.457 17.9478 435.483 19.4701C435.51 21.2062 435.749 22.9689 436.095 24.331C436.414 25.5062 437.132 27.3757 437.691 28.4708C438.276 29.5658 439.34 31.195 440.058 32.0764C440.776 32.9577 442.185 34.3199 443.169 35.0944C444.18 35.8956 445.776 36.8838 446.733 37.3379C447.691 37.7919 449.233 38.3261 450.191 38.513C451.148 38.7267 452.93 38.8869 454.18 38.8869C455.617 38.8869 457.212 38.7 458.569 38.3528C459.739 38.0323 461.468 37.3646 462.425 36.8571C463.383 36.3497 464.819 35.4149 465.617 34.8006C466.415 34.1596 467.665 32.8509 468.383 31.9161C469.101 30.9813 470.085 29.3254 470.59 28.2838C471.069 27.2155 471.468 26.1472 471.468 25.9335C471.468 25.7198 471.574 25.4795 471.734 25.3993C471.894 25.3192 472.053 25.2925 472.133 25.3459C472.213 25.3726 472.08 26.1205 471.84 27.0018C471.601 27.8832 470.909 29.5658 470.298 30.7143C469.659 31.9695 468.489 33.5987 467.479 34.6938C466.521 35.7087 464.978 37.0708 464.021 37.7118C463.064 38.3261 461.548 39.154 460.643 39.5279C459.712 39.9019 458.037 40.4093 456.92 40.6497C455.404 40.9702 454.127 41.0503 452.186 40.9435C450.723 40.8366 448.755 40.5429 447.797 40.2491C446.84 39.982 445.483 39.4745 444.739 39.154C444.021 38.8335 442.744 38.1124 441.946 37.5515C441.148 37.0174 439.765 35.7888 438.887 34.854C438.01 33.9192 436.919 32.477 436.441 31.6757C435.988 30.8745 435.27 29.2453 434.898 28.0702C434.472 26.7615 434.127 25.0521 434.047 23.6633C433.941 22.2745 434.02 20.6987 434.233 19.6571Z" fill="url(#paint3_linear_1778_708)"/>
<path d="M6.48 77.2778H8.44L14.02 91.2578H11.94L10.54 87.7778H4.36L3 91.2578H0.9L6.48 77.2778ZM9.98 86.0778L7.46 79.5378L4.94 86.0778H9.98ZM16.2219 77.2778H21.6019C23.1085 77.2778 24.2952 77.6578 25.1619 78.4178C26.0419 79.1645 26.4819 80.2311 26.4819 81.6178C26.4819 83.0311 26.0485 84.1045 25.1819 84.8378C24.3152 85.5578 23.1219 85.9178 21.6019 85.9178H18.2619V91.2578H16.2219V77.2778ZM21.3819 84.2178C22.3152 84.2178 23.0552 84.0245 23.6019 83.6378C24.1485 83.2511 24.4219 82.5778 24.4219 81.6178C24.4219 80.6578 24.1485 79.9845 23.6019 79.5978C23.0552 79.1978 22.3152 78.9978 21.3819 78.9978H18.2619V84.2178H21.3819ZM27.9797 77.2778H33.3597C34.8664 77.2778 36.053 77.6578 36.9197 78.4178C37.7997 79.1645 38.2397 80.2311 38.2397 81.6178C38.2397 83.0311 37.8064 84.1045 36.9397 84.8378C36.073 85.5578 34.8797 85.9178 33.3597 85.9178H30.0197V91.2578H27.9797V77.2778ZM33.1397 84.2178C34.073 84.2178 34.813 84.0245 35.3597 83.6378C35.9064 83.2511 36.1797 82.5778 36.1797 81.6178C36.1797 80.6578 35.9064 79.9845 35.3597 79.5978C34.813 79.1978 34.073 78.9978 33.1397 78.9978H30.0197V84.2178H33.1397ZM40.0305 77.2778H42.0705V89.5578H49.1505V91.2578H40.0305V77.2778ZM50.9484 77.2778H53.0084V91.2578H50.9484V77.2778ZM62.6164 91.5578C61.1764 91.5578 59.8964 91.2578 58.7764 90.6578C57.6564 90.0578 56.7831 89.2111 56.1564 88.1178C55.5297 87.0111 55.2164 85.7311 55.2164 84.2778C55.2164 82.8245 55.5297 81.5445 56.1564 80.4378C56.7831 79.3311 57.6564 78.4778 58.7764 77.8778C59.8964 77.2778 61.1764 76.9778 62.6164 76.9778C64.5364 76.9778 66.1431 77.4645 67.4364 78.4378V80.3978C66.2764 79.3711 64.7297 78.8578 62.7964 78.8578C61.7164 78.8578 60.7564 79.0778 59.9164 79.5178C59.0897 79.9578 58.4431 80.5911 57.9764 81.4178C57.5097 82.2311 57.2764 83.1845 57.2764 84.2778C57.2764 85.3711 57.5097 86.3311 57.9764 87.1578C58.4564 87.9845 59.1097 88.6178 59.9364 89.0578C60.7764 89.4978 61.7297 89.7178 62.7964 89.7178C63.7831 89.7178 64.6631 89.5911 65.4364 89.3378C66.2231 89.0711 66.9497 88.6511 67.6164 88.0778V90.0578C66.4164 91.0578 64.7497 91.5578 62.6164 91.5578ZM74.4878 77.2778H76.4478L82.0278 91.2578H79.9478L78.5478 87.7778H72.3678L71.0078 91.2578H68.9078L74.4878 77.2778ZM77.9878 86.0778L75.4678 79.5378L72.9478 86.0778H77.9878ZM85.2697 78.9978H80.9297V77.2778H91.6697V78.9978H87.3297V91.2578H85.2697V78.9978ZM93.468 77.2778H95.528V91.2578H93.468V77.2778ZM105.096 91.5578C103.709 91.5578 102.456 91.2578 101.336 90.6578C100.216 90.0445 99.3359 89.1845 98.6959 88.0778C98.0559 86.9711 97.7359 85.7045 97.7359 84.2778C97.7359 82.8511 98.0559 81.5845 98.6959 80.4778C99.3359 79.3711 100.216 78.5111 101.336 77.8978C102.456 77.2845 103.709 76.9778 105.096 76.9778C106.483 76.9778 107.736 77.2845 108.856 77.8978C109.976 78.5111 110.856 79.3711 111.496 80.4778C112.136 81.5845 112.456 82.8511 112.456 84.2778C112.456 85.7045 112.136 86.9711 111.496 88.0778C110.856 89.1845 109.976 90.0445 108.856 90.6578C107.736 91.2578 106.483 91.5578 105.096 91.5578ZM105.096 89.7178C106.083 89.7178 106.976 89.4978 107.776 89.0578C108.589 88.6045 109.229 87.9711 109.696 87.1578C110.163 86.3311 110.396 85.3711 110.396 84.2778C110.396 83.1978 110.163 82.2511 109.696 81.4378C109.243 80.6111 108.616 79.9778 107.816 79.5378C107.016 79.0845 106.123 78.8578 105.136 78.8578C104.136 78.8578 103.229 79.0778 102.416 79.5178C101.616 79.9578 100.976 80.5911 100.496 81.4178C100.029 82.2445 99.7959 83.1978 99.7959 84.2778C99.7959 85.3711 100.029 86.3311 100.496 87.1578C100.963 87.9711 101.596 88.6045 102.396 89.0578C103.209 89.4978 104.109 89.7178 105.096 89.7178ZM114.659 77.2778H116.599L123.719 87.8178V77.2778H125.779V91.2578H123.819L116.699 80.7178V91.2578H114.659V77.2778ZM132.25 91.5578C131.45 91.5578 130.657 91.4845 129.87 91.3378C129.097 91.2045 128.464 91.0178 127.97 90.7778V88.9378C129.25 89.5378 130.63 89.8378 132.11 89.8378C134.19 89.8378 135.23 89.1378 135.23 87.7378C135.23 87.2578 135.117 86.8711 134.89 86.5778C134.664 86.2845 134.337 86.0311 133.91 85.8178C133.484 85.5911 132.79 85.2845 131.83 84.8978C130.51 84.3645 129.557 83.7778 128.97 83.1378C128.384 82.4978 128.09 81.6911 128.09 80.7178C128.09 79.9845 128.29 79.3378 128.69 78.7778C129.09 78.2045 129.65 77.7645 130.37 77.4578C131.09 77.1378 131.917 76.9778 132.85 76.9778C133.61 76.9778 134.297 77.0378 134.91 77.1578C135.524 77.2778 136.124 77.4711 136.71 77.7378V79.4978C135.55 78.9778 134.377 78.7178 133.19 78.7178C132.23 78.7178 131.497 78.8911 130.99 79.2378C130.484 79.5845 130.23 80.0778 130.23 80.7178C130.23 81.1578 130.337 81.5311 130.55 81.8378C130.777 82.1311 131.104 82.3978 131.53 82.6378C131.97 82.8645 132.617 83.1511 133.47 83.4978C134.417 83.8845 135.164 84.2511 135.71 84.5978C136.257 84.9445 136.67 85.3711 136.95 85.8778C137.244 86.3711 137.39 86.9911 137.39 87.7378C137.39 88.9511 136.957 89.8911 136.09 90.5578C135.224 91.2245 133.944 91.5578 132.25 91.5578Z" fill="black"/>
<line x1="145" y1="84.5" x2="428" y2="84.5" stroke="black" stroke-dasharray="2 2"/>
<path d="M449.72 85.3C448.52 85.3 447.48 85.0067 446.6 84.42C445.733 83.8333 445.067 82.9933 444.6 81.9C444.133 80.8067 443.9 79.5133 443.9 78.02C443.9 76.5267 444.127 75.2333 444.58 74.14C445.047 73.0333 445.713 72.1867 446.58 71.6C447.46 71.0133 448.507 70.72 449.72 70.72C450.933 70.72 451.973 71.0133 452.84 71.6C453.72 72.1867 454.387 73.0333 454.84 74.14C455.307 75.2333 455.54 76.5267 455.54 78.02C455.54 79.5133 455.307 80.8067 454.84 81.9C454.373 82.9933 453.7 83.8333 452.82 84.42C451.953 85.0067 450.92 85.3 449.72 85.3ZM449.72 83.5C450.907 83.5 451.833 83.0133 452.5 82.04C453.18 81.0533 453.52 79.72 453.52 78.04C453.52 76.36 453.187 75.0267 452.52 74.04C451.853 73.0533 450.92 72.56 449.72 72.56C448.52 72.56 447.587 73.0533 446.92 74.04C446.253 75.0267 445.92 76.36 445.92 78.04C445.92 79.72 446.253 81.0533 446.92 82.04C447.6 83.0133 448.533 83.5 449.72 83.5ZM458.938 83.66L461.958 80.76C462.224 80.4933 462.598 80.1467 463.078 79.72C463.838 79.0267 464.418 78.4667 464.818 78.04C465.218 77.6133 465.544 77.16 465.798 76.68C466.051 76.1867 466.178 75.66 466.178 75.1C466.178 74.2733 465.938 73.6467 465.458 73.22C464.978 72.78 464.278 72.56 463.358 72.56C462.731 72.56 462.084 72.6733 461.418 72.9C460.764 73.1267 460.151 73.46 459.578 73.9V71.94C460.698 71.1267 462.064 70.72 463.678 70.72C465.118 70.72 466.238 71.1067 467.038 71.88C467.838 72.64 468.238 73.68 468.238 75C468.238 75.64 468.098 76.2533 467.818 76.84C467.551 77.4267 467.171 78.0067 466.678 78.58C466.184 79.14 465.518 79.8267 464.678 80.64L461.958 83.3H468.758V85H458.938V83.66Z" fill="black"/>
<path d="M447.664 57.2819C448.542 56.9347 450.031 56.4806 450.989 56.267C452.026 56.0533 453.675 55.9465 455.111 56.0266C456.441 56.08 458.143 56.3204 458.914 56.5341C459.659 56.7744 460.297 57.0949 460.297 57.2285C460.297 57.3887 459.287 57.4956 457.771 57.4956C456.388 57.4956 454.367 57.6825 453.329 57.9229C452.265 58.1633 450.43 58.8042 449.26 59.3651C448.09 59.8993 446.361 60.9409 445.43 61.662C444.473 62.3831 443.116 63.6918 442.398 64.5732C441.68 65.4546 440.776 66.7099 440.377 67.3776C440.004 68.0453 439.419 69.3273 439.1 70.262C438.754 71.1701 438.356 72.9863 438.223 74.3217C438.01 76.2447 438.036 77.2062 438.382 79.0757C438.595 80.3577 439.1 82.1739 439.499 83.1354C439.898 84.0969 440.776 85.6459 441.441 86.6074C442.132 87.5689 443.223 88.8509 443.914 89.4919C444.579 90.1062 445.776 91.0143 446.521 91.5217C447.292 92.0025 448.808 92.7503 449.872 93.1776C450.936 93.605 451.787 94.0323 451.787 94.1658C451.787 94.2727 451.627 94.3528 451.468 94.3528C451.281 94.3528 450.217 94.059 449.127 93.6851C448.037 93.3379 446.228 92.4565 445.138 91.7354C444.047 91.0143 442.451 89.7056 441.6 88.8509C440.776 87.9962 439.845 86.9279 439.526 86.4739C439.233 86.0198 438.648 85.0049 438.249 84.2037C437.824 83.4024 437.185 81.8801 436.866 80.8652C436.308 79.2627 436.228 78.4881 436.228 75.2565C436.228 72.1049 436.334 71.1968 436.866 69.5142C437.185 68.4192 437.877 66.7366 438.382 65.7751C438.887 64.8136 439.792 63.4248 440.403 62.6769C441.042 61.9024 442.079 60.8341 442.744 60.2999C443.409 59.739 444.419 58.9912 445.005 58.6173C445.59 58.2434 446.787 57.6558 447.664 57.2819Z" fill="url(#paint4_linear_1778_708)"/>
<path d="M448.994 60.1397C450.164 59.5788 452.026 58.8577 453.116 58.5639C454.739 58.1365 455.723 58.0564 458.303 58.1365C461.016 58.2167 461.893 58.3502 464.021 59.0713C465.51 59.5521 467.372 60.4334 468.542 61.208C469.633 61.9024 471.255 63.2645 472.133 64.226C473.011 65.1875 474.101 66.6564 474.58 67.5378C475.058 68.3925 475.67 69.8347 475.989 70.7161C476.282 71.5974 476.654 73.2266 476.84 74.3217C477.053 75.8173 477.053 76.8322 476.84 78.3279C476.654 79.4229 476.415 80.785 476.255 81.3459C476.122 81.8801 475.883 82.3341 475.723 82.3341C475.564 82.3341 475.457 81.3993 475.457 80.0639C475.457 78.8086 475.271 76.859 475.032 75.7372C474.792 74.5888 474.367 73.0664 474.074 72.3186C473.782 71.5974 473.037 70.1285 472.399 69.1136C471.761 68.0987 470.324 66.3359 469.154 65.2409C467.798 63.9055 466.361 62.8639 464.952 62.1161C463.782 61.5018 461.973 60.8074 460.962 60.567C459.925 60.3266 458.063 60.1397 456.707 60.1397C455.404 60.1664 453.542 60.3533 452.585 60.5937C451.627 60.8341 450.271 61.3148 449.526 61.6353C448.808 61.9558 447.478 62.7036 446.6 63.2912C445.723 63.9055 444.446 64.9738 443.755 65.695C443.09 66.3894 442.026 67.7515 441.441 68.713C440.829 69.6745 440.058 71.1968 439.739 72.1316C439.419 73.0397 439.074 73.7875 438.967 73.7875C438.834 73.7875 438.754 73.6273 438.754 73.467C438.754 73.2801 438.941 72.4521 439.18 71.6509C439.419 70.8496 440.004 69.4074 440.51 68.4459C441.015 67.4844 441.946 66.0422 442.611 65.2409C443.276 64.4397 444.499 63.1844 445.324 62.49C446.175 61.7956 447.824 60.7272 448.994 60.1397Z" fill="url(#paint5_linear_1778_708)"/>
<path d="M460.244 61.5285C459.686 61.3682 459.234 61.1011 459.26 60.9409C459.287 60.7539 459.579 60.7272 460.111 60.8341C460.59 60.9409 461.734 61.3148 462.691 61.6887C463.649 62.0359 465.191 62.8639 466.149 63.5049C467.106 64.1459 468.542 65.3477 469.367 66.2291C470.191 67.0838 471.308 68.4993 471.867 69.3807C472.425 70.262 473.17 71.6509 473.489 72.4521C473.808 73.2534 474.287 74.936 474.553 76.1912C474.872 77.8472 474.952 79.1024 474.846 80.8652C474.739 82.2006 474.42 84.177 474.128 85.272C473.808 86.3671 473.064 88.2366 472.452 89.4118C471.654 90.9341 470.723 92.1627 469.207 93.6851C467.771 95.154 466.468 96.1422 465.218 96.8099C464.207 97.3441 462.452 98.0652 461.361 98.3857C459.819 98.8665 458.755 99 456.574 99C454.739 99 453.249 98.8398 452.239 98.546C451.414 98.3056 450.723 98.0118 450.723 97.905C450.723 97.7714 452.186 97.6112 453.968 97.5311C456.68 97.3975 457.638 97.2373 459.633 96.5429C460.962 96.0621 462.691 95.2876 463.489 94.8335C464.287 94.3528 466.042 92.8571 467.372 91.5484C469.34 89.5987 469.979 88.7174 470.909 86.8745C471.521 85.6192 472.186 83.7497 472.399 82.7347C472.612 81.7198 472.798 79.9571 472.798 78.8621C472.798 77.767 472.612 76.0043 472.399 74.9894C472.186 73.9745 471.601 72.2652 471.096 71.2502C470.617 70.2353 469.659 68.6328 468.968 67.7248C468.303 66.79 467.053 65.4813 466.228 64.8136C465.377 64.1459 463.915 63.2111 462.957 62.7303C462 62.2496 460.776 61.7154 460.244 61.5285Z" fill="url(#paint6_linear_1778_708)"/>
<path d="M434.233 75.6571C434.393 74.6956 434.659 73.654 434.792 73.3335C434.925 72.9863 435.111 72.7192 435.217 72.7192C435.35 72.7192 435.457 73.9478 435.483 75.4701C435.51 77.2062 435.749 78.9689 436.095 80.331C436.414 81.5062 437.132 83.3757 437.691 84.4708C438.276 85.5658 439.34 87.195 440.058 88.0764C440.776 88.9577 442.185 90.3199 443.169 91.0944C444.18 91.8956 445.776 92.8838 446.733 93.3379C447.691 93.7919 449.233 94.3261 450.191 94.513C451.148 94.7267 452.93 94.8869 454.18 94.8869C455.617 94.8869 457.212 94.7 458.569 94.3528C459.739 94.0323 461.468 93.3646 462.425 92.8571C463.383 92.3497 464.819 91.4149 465.617 90.8006C466.415 90.1596 467.665 88.8509 468.383 87.9161C469.101 86.9813 470.085 85.3254 470.59 84.2838C471.069 83.2155 471.468 82.1472 471.468 81.9335C471.468 81.7198 471.574 81.4795 471.734 81.3993C471.894 81.3192 472.053 81.2925 472.133 81.3459C472.213 81.3726 472.08 82.1205 471.84 83.0018C471.601 83.8832 470.909 85.5658 470.298 86.7143C469.659 87.9695 468.489 89.5987 467.479 90.6938C466.521 91.7087 464.978 93.0708 464.021 93.7118C463.064 94.3261 461.548 95.154 460.643 95.5279C459.712 95.9019 458.037 96.4093 456.92 96.6497C455.404 96.9702 454.127 97.0503 452.186 96.9435C450.723 96.8366 448.755 96.5429 447.797 96.2491C446.84 95.982 445.483 95.4745 444.739 95.154C444.021 94.8335 442.744 94.1124 441.946 93.5515C441.148 93.0174 439.765 91.7888 438.887 90.854C438.01 89.9192 436.919 88.477 436.441 87.6757C435.988 86.8745 435.27 85.2453 434.898 84.0702C434.472 82.7615 434.127 81.0521 434.047 79.6633C433.941 78.2745 434.02 76.6987 434.233 75.6571Z" fill="url(#paint7_linear_1778_708)"/>
<path d="M1.3 133.536H6.68C8.18667 133.536 9.37333 133.916 10.24 134.676C11.12 135.422 11.56 136.489 11.56 137.876C11.56 139.289 11.1267 140.362 10.26 141.096C9.39333 141.816 8.2 142.176 6.68 142.176H3.34V147.516H1.3V133.536ZM6.46 140.476C7.39333 140.476 8.13333 140.282 8.68 139.896C9.22667 139.509 9.5 138.836 9.5 137.876C9.5 136.916 9.22667 136.242 8.68 135.856C8.13333 135.456 7.39333 135.256 6.46 135.256H3.34V140.476H6.46ZM13.3508 133.536H18.9708C20.4641 133.536 21.6108 133.896 22.4108 134.616C23.2108 135.336 23.6108 136.389 23.6108 137.776C23.6108 138.802 23.3374 139.676 22.7908 140.396C22.2441 141.102 21.4708 141.582 20.4708 141.836L23.5508 147.516H21.4308L18.4508 141.996H15.3908V147.516H13.3508V133.536ZM18.6308 140.276C19.5241 140.276 20.2308 140.069 20.7508 139.656C21.2841 139.229 21.5508 138.602 21.5508 137.776C21.5508 136.869 21.2908 136.222 20.7708 135.836C20.2641 135.449 19.5508 135.256 18.6308 135.256H15.3908V140.276H18.6308ZM32.4788 147.816C31.0921 147.816 29.8388 147.516 28.7188 146.916C27.5988 146.302 26.7188 145.442 26.0788 144.336C25.4388 143.229 25.1188 141.962 25.1188 140.536C25.1188 139.109 25.4388 137.842 26.0788 136.736C26.7188 135.629 27.5988 134.769 28.7188 134.156C29.8388 133.542 31.0921 133.236 32.4788 133.236C33.8654 133.236 35.1188 133.542 36.2388 134.156C37.3588 134.769 38.2388 135.629 38.8788 136.736C39.5188 137.842 39.8388 139.109 39.8388 140.536C39.8388 141.962 39.5188 143.229 38.8788 144.336C38.2388 145.442 37.3588 146.302 36.2388 146.916C35.1188 147.516 33.8654 147.816 32.4788 147.816ZM32.4788 145.976C33.4654 145.976 34.3588 145.756 35.1588 145.316C35.9721 144.862 36.6121 144.229 37.0788 143.416C37.5454 142.589 37.7788 141.629 37.7788 140.536C37.7788 139.456 37.5454 138.509 37.0788 137.696C36.6254 136.869 35.9988 136.236 35.1988 135.796C34.3988 135.342 33.5054 135.116 32.5188 135.116C31.5188 135.116 30.6121 135.336 29.7988 135.776C28.9988 136.216 28.3588 136.849 27.8788 137.676C27.4121 138.502 27.1788 139.456 27.1788 140.536C27.1788 141.629 27.4121 142.589 27.8788 143.416C28.3454 144.229 28.9788 144.862 29.7788 145.316C30.5921 145.756 31.4921 145.976 32.4788 145.976ZM42.0422 133.536H46.5422C48.0489 133.536 49.3555 133.816 50.4622 134.376C51.5689 134.936 52.4155 135.736 53.0022 136.776C53.6022 137.816 53.9022 139.042 53.9022 140.456C53.9022 142.776 53.2289 144.536 51.8822 145.736C50.5489 146.922 48.6755 147.516 46.2622 147.516H42.0422V133.536ZM46.2422 145.816C48.1089 145.816 49.5089 145.356 50.4422 144.436C51.3755 143.516 51.8422 142.189 51.8422 140.456C51.8422 138.856 51.3822 137.589 50.4622 136.656C49.5555 135.722 48.2555 135.256 46.5622 135.256H44.0822V145.816H46.2422ZM61.7847 147.816C59.878 147.816 58.438 147.329 57.4647 146.356C56.4914 145.369 56.0047 144.016 56.0047 142.296V133.536H58.0447V142.376C58.0447 143.562 58.378 144.462 59.0447 145.076C59.7114 145.676 60.6247 145.976 61.7847 145.976C62.9314 145.976 63.838 145.676 64.5047 145.076C65.1714 144.462 65.5047 143.562 65.5047 142.376V133.536H67.5447V142.296C67.5447 144.002 67.058 145.349 66.0847 146.336C65.1114 147.322 63.678 147.816 61.7847 147.816ZM77.05 147.816C75.61 147.816 74.33 147.516 73.21 146.916C72.09 146.316 71.2167 145.469 70.59 144.376C69.9633 143.269 69.65 141.989 69.65 140.536C69.65 139.082 69.9633 137.802 70.59 136.696C71.2167 135.589 72.09 134.736 73.21 134.136C74.33 133.536 75.61 133.236 77.05 133.236C78.97 133.236 80.5767 133.722 81.87 134.696V136.656C80.71 135.629 79.1633 135.116 77.23 135.116C76.15 135.116 75.19 135.336 74.35 135.776C73.5233 136.216 72.8767 136.849 72.41 137.676C71.9433 138.489 71.71 139.442 71.71 140.536C71.71 141.629 71.9433 142.589 72.41 143.416C72.89 144.242 73.5433 144.876 74.37 145.316C75.21 145.756 76.1633 145.976 77.23 145.976C78.2167 145.976 79.0967 145.849 79.87 145.596C80.6567 145.329 81.3833 144.909 82.05 144.336V146.316C80.85 147.316 79.1833 147.816 77.05 147.816ZM87.6916 135.256H83.3516V133.536H94.0916V135.256H89.7516V147.516H87.6916V135.256ZM99.262 147.816C98.462 147.816 97.6687 147.742 96.882 147.596C96.1087 147.462 95.4754 147.276 94.982 147.036V145.196C96.262 145.796 97.642 146.096 99.122 146.096C101.202 146.096 102.242 145.396 102.242 143.996C102.242 143.516 102.129 143.129 101.902 142.836C101.675 142.542 101.349 142.289 100.922 142.076C100.495 141.849 99.802 141.542 98.842 141.156C97.522 140.622 96.5687 140.036 95.982 139.396C95.3954 138.756 95.102 137.949 95.102 136.976C95.102 136.242 95.302 135.596 95.702 135.036C96.102 134.462 96.662 134.022 97.382 133.716C98.102 133.396 98.9287 133.236 99.862 133.236C100.622 133.236 101.309 133.296 101.922 133.416C102.535 133.536 103.135 133.729 103.722 133.996V135.756C102.562 135.236 101.389 134.976 100.202 134.976C99.242 134.976 98.5087 135.149 98.002 135.496C97.4954 135.842 97.242 136.336 97.242 136.976C97.242 137.416 97.3487 137.789 97.562 138.096C97.7887 138.389 98.1154 138.656 98.542 138.896C98.982 139.122 99.6287 139.409 100.482 139.756C101.429 140.142 102.175 140.509 102.722 140.856C103.269 141.202 103.682 141.629 103.962 142.136C104.255 142.629 104.402 143.249 104.402 143.996C104.402 145.209 103.969 146.149 103.102 146.816C102.235 147.482 100.955 147.816 99.262 147.816Z" fill="black"/>
<line x1="145" y1="140.758" x2="428" y2="140.758" stroke="black" stroke-dasharray="2 2"/>
<path d="M446.92 129.478L443.9 131.658V129.718L447.2 127.278H448.96V141.258H446.92V129.478ZM456.526 141.558C455.792 141.558 455.139 141.478 454.566 141.318V139.618C455.086 139.818 455.686 139.918 456.366 139.918C459.232 139.918 460.806 138.204 461.086 134.778C460.686 135.284 460.159 135.664 459.506 135.918C458.866 136.171 458.146 136.298 457.346 136.298C456.452 136.298 455.659 136.111 454.966 135.738C454.272 135.364 453.732 134.831 453.346 134.138C452.959 133.444 452.766 132.638 452.766 131.718C452.766 130.811 452.966 129.998 453.366 129.278C453.779 128.558 454.372 127.998 455.146 127.598C455.919 127.184 456.832 126.978 457.886 126.978C458.899 126.978 459.799 127.204 460.586 127.658C461.386 128.111 462.012 128.791 462.466 129.698C462.919 130.591 463.146 131.678 463.146 132.958C463.146 135.731 462.572 137.858 461.426 139.338C460.292 140.818 458.659 141.558 456.526 141.558ZM457.886 134.698C458.766 134.698 459.499 134.418 460.086 133.858C460.686 133.298 460.986 132.558 460.986 131.638C460.986 131.091 460.852 130.584 460.586 130.118C460.332 129.651 459.972 129.278 459.506 128.998C459.039 128.718 458.499 128.578 457.886 128.578C456.952 128.578 456.199 128.858 455.626 129.418C455.066 129.978 454.786 130.724 454.786 131.658C454.786 132.591 455.066 133.331 455.626 133.878C456.199 134.424 456.952 134.698 457.886 134.698Z" fill="black"/>
<path d="M447.664 113.54C448.542 113.192 450.031 112.738 450.989 112.525C452.026 112.311 453.675 112.204 455.111 112.284C456.441 112.338 458.143 112.578 458.914 112.792C459.659 113.032 460.297 113.353 460.297 113.486C460.297 113.647 459.287 113.753 457.771 113.753C456.388 113.753 454.367 113.94 453.329 114.181C452.265 114.421 450.43 115.062 449.26 115.623C448.09 116.157 446.361 117.199 445.43 117.92C444.473 118.641 443.116 119.95 442.398 120.831C441.68 121.712 440.776 122.968 440.377 123.635C440.004 124.303 439.419 125.585 439.1 126.52C438.754 127.428 438.356 129.244 438.223 130.579C438.01 132.502 438.036 133.464 438.382 135.334C438.595 136.616 439.1 138.432 439.499 139.393C439.898 140.355 440.776 141.904 441.441 142.865C442.132 143.827 443.223 145.109 443.914 145.75C444.579 146.364 445.776 147.272 446.521 147.78C447.292 148.26 448.808 149.008 449.872 149.435C450.936 149.863 451.787 150.29 451.787 150.424C451.787 150.53 451.627 150.611 451.468 150.611C451.281 150.611 450.217 150.317 449.127 149.943C448.037 149.596 446.228 148.714 445.138 147.993C444.047 147.272 442.451 145.963 441.6 145.109C440.776 144.254 439.845 143.186 439.526 142.732C439.233 142.278 438.648 141.263 438.249 140.462C437.824 139.66 437.185 138.138 436.866 137.123C436.308 135.52 436.228 134.746 436.228 131.514C436.228 128.363 436.334 127.455 436.866 125.772C437.185 124.677 437.877 122.994 438.382 122.033C438.887 121.071 439.792 119.683 440.403 118.935C441.042 118.16 442.079 117.092 442.744 116.558C443.409 115.997 444.419 115.249 445.005 114.875C445.59 114.501 446.787 113.914 447.664 113.54Z" fill="url(#paint8_linear_1778_708)"/>
<path d="M448.994 116.397C450.164 115.837 452.026 115.115 453.116 114.822C454.739 114.394 455.723 114.314 458.303 114.394C461.016 114.474 461.893 114.608 464.021 115.329C465.51 115.81 467.372 116.691 468.542 117.466C469.633 118.16 471.255 119.522 472.133 120.484C473.011 121.445 474.101 122.914 474.58 123.796C475.058 124.65 475.67 126.093 475.989 126.974C476.282 127.855 476.654 129.484 476.84 130.579C477.053 132.075 477.053 133.09 476.84 134.586C476.654 135.681 476.415 137.043 476.255 137.604C476.122 138.138 475.883 138.592 475.723 138.592C475.564 138.592 475.457 137.657 475.457 136.322C475.457 135.066 475.271 133.117 475.032 131.995C474.792 130.847 474.367 129.324 474.074 128.576C473.782 127.855 473.037 126.386 472.399 125.371C471.761 124.356 470.324 122.594 469.154 121.499C467.798 120.163 466.361 119.122 464.952 118.374C463.782 117.76 461.973 117.065 460.962 116.825C459.925 116.584 458.063 116.397 456.707 116.397C455.404 116.424 453.542 116.611 452.585 116.852C451.627 117.092 450.271 117.573 449.526 117.893C448.808 118.214 447.478 118.961 446.6 119.549C445.723 120.163 444.446 121.232 443.755 121.953C443.09 122.647 442.026 124.009 441.441 124.971C440.829 125.932 440.058 127.455 439.739 128.389C439.419 129.298 439.074 130.045 438.967 130.045C438.834 130.045 438.754 129.885 438.754 129.725C438.754 129.538 438.941 128.71 439.18 127.909C439.419 127.107 440.004 125.665 440.51 124.704C441.015 123.742 441.946 122.3 442.611 121.499C443.276 120.697 444.499 119.442 445.324 118.748C446.175 118.053 447.824 116.985 448.994 116.397Z" fill="url(#paint9_linear_1778_708)"/>
<path d="M460.244 117.786C459.686 117.626 459.234 117.359 459.26 117.199C459.287 117.012 459.579 116.985 460.111 117.092C460.59 117.199 461.734 117.573 462.691 117.947C463.649 118.294 465.191 119.122 466.149 119.763C467.106 120.404 468.542 121.606 469.367 122.487C470.191 123.342 471.308 124.757 471.867 125.638C472.425 126.52 473.17 127.909 473.489 128.71C473.808 129.511 474.287 131.194 474.553 132.449C474.872 134.105 474.952 135.36 474.846 137.123C474.739 138.458 474.42 140.435 474.128 141.53C473.808 142.625 473.064 144.494 472.452 145.67C471.654 147.192 470.723 148.421 469.207 149.943C467.771 151.412 466.468 152.4 465.218 153.068C464.207 153.602 462.452 154.323 461.361 154.644C459.819 155.124 458.755 155.258 456.574 155.258C454.739 155.258 453.249 155.098 452.239 154.804C451.414 154.563 450.723 154.27 450.723 154.163C450.723 154.029 452.186 153.869 453.968 153.789C456.68 153.655 457.638 153.495 459.633 152.801C460.962 152.32 462.691 151.545 463.489 151.091C464.287 150.611 466.042 149.115 467.372 147.806C469.34 145.857 469.979 144.975 470.909 143.132C471.521 141.877 472.186 140.007 472.399 138.993C472.612 137.978 472.798 136.215 472.798 135.12C472.798 134.025 472.612 132.262 472.399 131.247C472.186 130.232 471.601 128.523 471.096 127.508C470.617 126.493 469.659 124.891 468.968 123.983C468.303 123.048 467.053 121.739 466.228 121.071C465.377 120.404 463.915 119.469 462.957 118.988C462 118.507 460.776 117.973 460.244 117.786Z" fill="url(#paint10_linear_1778_708)"/>
<path d="M434.233 131.915C434.393 130.953 434.659 129.912 434.792 129.591C434.925 129.244 435.111 128.977 435.217 128.977C435.35 128.977 435.457 130.206 435.483 131.728C435.51 133.464 435.749 135.227 436.095 136.589C436.414 137.764 437.132 139.634 437.691 140.729C438.276 141.824 439.34 143.453 440.058 144.334C440.776 145.216 442.185 146.578 443.169 147.352C444.18 148.153 445.776 149.142 446.733 149.596C447.691 150.05 449.233 150.584 450.191 150.771C451.148 150.985 452.93 151.145 454.18 151.145C455.617 151.145 457.212 150.958 458.569 150.611C459.739 150.29 461.468 149.622 462.425 149.115C463.383 148.607 464.819 147.673 465.617 147.058C466.415 146.417 467.665 145.109 468.383 144.174C469.101 143.239 470.085 141.583 470.59 140.542C471.069 139.473 471.468 138.405 471.468 138.191C471.468 137.978 471.574 137.737 471.734 137.657C471.894 137.577 472.053 137.55 472.133 137.604C472.213 137.63 472.08 138.378 471.84 139.26C471.601 140.141 470.909 141.824 470.298 142.972C469.659 144.227 468.489 145.857 467.479 146.952C466.521 147.966 464.978 149.329 464.021 149.97C463.064 150.584 461.548 151.412 460.643 151.786C459.712 152.16 458.037 152.667 456.92 152.907C455.404 153.228 454.127 153.308 452.186 153.201C450.723 153.094 448.755 152.801 447.797 152.507C446.84 152.24 445.483 151.732 444.739 151.412C444.021 151.091 442.744 150.37 441.946 149.809C441.148 149.275 439.765 148.047 438.887 147.112C438.01 146.177 436.919 144.735 436.441 143.934C435.988 143.132 435.27 141.503 434.898 140.328C434.472 139.019 434.127 137.31 434.047 135.921C433.941 134.532 434.02 132.957 434.233 131.915Z" fill="url(#paint11_linear_1778_708)"/>
<path d="M8.3 203.073C6.86 203.073 5.58 202.773 4.46 202.173C3.34 201.573 2.46667 200.727 1.84 199.633C1.21333 198.527 0.9 197.247 0.9 195.793C0.9 194.34 1.21333 193.06 1.84 191.953C2.46667 190.847 3.34 189.993 4.46 189.393C5.58 188.793 6.86 188.493 8.3 188.493C10.22 188.493 11.8267 188.98 13.12 189.953V191.913C11.96 190.887 10.4133 190.373 8.48 190.373C7.4 190.373 6.44 190.593 5.6 191.033C4.77333 191.473 4.12667 192.107 3.66 192.933C3.19333 193.747 2.96 194.7 2.96 195.793C2.96 196.887 3.19333 197.847 3.66 198.673C4.14 199.5 4.79333 200.133 5.62 200.573C6.46 201.013 7.41333 201.233 8.48 201.233C9.46667 201.233 10.3467 201.107 11.12 200.853C11.9067 200.587 12.6333 200.167 13.3 199.593V201.573C12.1 202.573 10.4333 203.073 8.3 203.073ZM21.9514 203.073C20.5647 203.073 19.3114 202.773 18.1914 202.173C17.0714 201.56 16.1914 200.7 15.5514 199.593C14.9114 198.487 14.5914 197.22 14.5914 195.793C14.5914 194.367 14.9114 193.1 15.5514 191.993C16.1914 190.887 17.0714 190.027 18.1914 189.413C19.3114 188.8 20.5647 188.493 21.9514 188.493C23.3381 188.493 24.5914 188.8 25.7114 189.413C26.8314 190.027 27.7114 190.887 28.3514 191.993C28.9914 193.1 29.3114 194.367 29.3114 195.793C29.3114 197.22 28.9914 198.487 28.3514 199.593C27.7114 200.7 26.8314 201.56 25.7114 202.173C24.5914 202.773 23.3381 203.073 21.9514 203.073ZM21.9514 201.233C22.9381 201.233 23.8314 201.013 24.6314 200.573C25.4447 200.12 26.0847 199.487 26.5514 198.673C27.0181 197.847 27.2514 196.887 27.2514 195.793C27.2514 194.713 27.0181 193.767 26.5514 192.953C26.0981 192.127 25.4714 191.493 24.6714 191.053C23.8714 190.6 22.9781 190.373 21.9914 190.373C20.9914 190.373 20.0847 190.593 19.2714 191.033C18.4714 191.473 17.8314 192.107 17.3514 192.933C16.8847 193.76 16.6514 194.713 16.6514 195.793C16.6514 196.887 16.8847 197.847 17.3514 198.673C17.8181 199.487 18.4514 200.12 19.2514 200.573C20.0647 201.013 20.9647 201.233 21.9514 201.233ZM31.5148 188.793H33.4548L40.5748 199.333V188.793H42.6348V202.773H40.6748L33.5548 192.233V202.773H31.5148V188.793ZM48.7658 190.513H44.4258V188.793H55.1658V190.513H50.8258V202.773H48.7658V190.513ZM59.6441 188.793H61.6041L67.1841 202.773H65.1041L63.7041 199.293H57.5241L56.1641 202.773H54.0641L59.6441 188.793ZM63.1441 197.593L60.6241 191.053L58.1041 197.593H63.1441ZM75.2922 203.073C73.8522 203.073 72.5722 202.773 71.4522 202.173C70.3322 201.573 69.4589 200.727 68.8322 199.633C68.2055 198.527 67.8922 197.247 67.8922 195.793C67.8922 194.34 68.2055 193.06 68.8322 191.953C69.4589 190.847 70.3322 189.993 71.4522 189.393C72.5722 188.793 73.8522 188.493 75.2922 188.493C77.2122 188.493 78.8189 188.98 80.1122 189.953V191.913C78.9522 190.887 77.4055 190.373 75.4722 190.373C74.3922 190.373 73.4322 190.593 72.5922 191.033C71.7655 191.473 71.1189 192.107 70.6522 192.933C70.1855 193.747 69.9522 194.7 69.9522 195.793C69.9522 196.887 70.1855 197.847 70.6522 198.673C71.1322 199.5 71.7855 200.133 72.6122 200.573C73.4522 201.013 74.4055 201.233 75.4722 201.233C76.4589 201.233 77.3389 201.107 78.1122 200.853C78.8989 200.587 79.6255 200.167 80.2922 199.593V201.573C79.0922 202.573 77.4255 203.073 75.2922 203.073ZM85.9338 190.513H81.5938V188.793H92.3338V190.513H87.9938V202.773H85.9338V190.513ZM107.214 203.073C105.308 203.073 103.868 202.587 102.894 201.613C101.921 200.627 101.434 199.273 101.434 197.553V188.793H103.474V197.633C103.474 198.82 103.808 199.72 104.474 200.333C105.141 200.933 106.054 201.233 107.214 201.233C108.361 201.233 109.268 200.933 109.934 200.333C110.601 199.72 110.934 198.82 110.934 197.633V188.793H112.974V197.553C112.974 199.26 112.488 200.607 111.514 201.593C110.541 202.58 109.108 203.073 107.214 203.073ZM119.36 203.073C118.56 203.073 117.766 203 116.98 202.853C116.206 202.72 115.573 202.533 115.08 202.293V200.453C116.36 201.053 117.74 201.353 119.22 201.353C121.3 201.353 122.34 200.653 122.34 199.253C122.34 198.773 122.226 198.387 122 198.093C121.773 197.8 121.446 197.547 121.02 197.333C120.593 197.107 119.9 196.8 118.94 196.413C117.62 195.88 116.666 195.293 116.08 194.653C115.493 194.013 115.2 193.207 115.2 192.233C115.2 191.5 115.4 190.853 115.8 190.293C116.2 189.72 116.76 189.28 117.48 188.973C118.2 188.653 119.026 188.493 119.96 188.493C120.72 188.493 121.406 188.553 122.02 188.673C122.633 188.793 123.233 188.987 123.82 189.253V191.013C122.66 190.493 121.486 190.233 120.3 190.233C119.34 190.233 118.606 190.407 118.1 190.753C117.593 191.1 117.34 191.593 117.34 192.233C117.34 192.673 117.446 193.047 117.66 193.353C117.886 193.647 118.213 193.913 118.64 194.153C119.08 194.38 119.726 194.667 120.58 195.013C121.526 195.4 122.273 195.767 122.82 196.113C123.366 196.46 123.78 196.887 124.06 197.393C124.353 197.887 124.5 198.507 124.5 199.253C124.5 200.467 124.066 201.407 123.2 202.073C122.333 202.74 121.053 203.073 119.36 203.073Z" fill="black"/>
<line x1="130" y1="196.016" x2="426" y2="196.016" stroke="black" stroke-dasharray="2 2"/>
<path d="M449.16 197.816C448.347 197.816 447.567 197.749 446.82 197.616C446.087 197.496 445.447 197.309 444.9 197.056V195.376C446.14 195.936 447.473 196.216 448.9 196.216C450.127 196.216 451.033 195.996 451.62 195.556C452.22 195.102 452.52 194.462 452.52 193.636C452.52 192.782 452.213 192.176 451.6 191.816C450.987 191.442 450.053 191.256 448.8 191.256H447.16V189.616H448.76C449.76 189.616 450.567 189.416 451.18 189.016C451.793 188.602 452.1 188.002 452.1 187.216C452.1 186.442 451.847 185.856 451.34 185.456C450.833 185.056 450.1 184.856 449.14 184.856C448.393 184.856 447.72 184.942 447.12 185.116C446.52 185.289 445.9 185.576 445.26 185.976V184.296C446.433 183.589 447.807 183.236 449.38 183.236C450.94 183.236 452.127 183.582 452.94 184.276C453.753 184.969 454.16 185.929 454.16 187.156C454.16 187.902 453.96 188.556 453.56 189.116C453.16 189.676 452.56 190.109 451.76 190.416C452.667 190.629 453.36 191.016 453.84 191.576C454.333 192.136 454.58 192.842 454.58 193.696C454.58 194.962 454.147 195.969 453.28 196.716C452.413 197.449 451.04 197.816 449.16 197.816ZM462.204 197.816C461.004 197.816 459.964 197.522 459.084 196.936C458.218 196.349 457.551 195.509 457.084 194.416C456.618 193.322 456.384 192.029 456.384 190.536C456.384 189.042 456.611 187.749 457.064 186.656C457.531 185.549 458.198 184.702 459.064 184.116C459.944 183.529 460.991 183.236 462.204 183.236C463.418 183.236 464.458 183.529 465.324 184.116C466.204 184.702 466.871 185.549 467.324 186.656C467.791 187.749 468.024 189.042 468.024 190.536C468.024 192.029 467.791 193.322 467.324 194.416C466.858 195.509 466.184 196.349 465.304 196.936C464.438 197.522 463.404 197.816 462.204 197.816ZM462.204 196.016C463.391 196.016 464.318 195.529 464.984 194.556C465.664 193.569 466.004 192.236 466.004 190.556C466.004 188.876 465.671 187.542 465.004 186.556C464.338 185.569 463.404 185.076 462.204 185.076C461.004 185.076 460.071 185.569 459.404 186.556C458.738 187.542 458.404 188.876 458.404 190.556C458.404 192.236 458.738 193.569 459.404 194.556C460.084 195.529 461.018 196.016 462.204 196.016Z" fill="black"/>
<path d="M447.664 169.798C448.542 169.45 450.031 168.996 450.989 168.783C452.026 168.569 453.675 168.462 455.111 168.542C456.441 168.596 458.143 168.836 458.914 169.05C459.659 169.29 460.297 169.611 460.297 169.744C460.297 169.904 459.287 170.011 457.771 170.011C456.388 170.011 454.367 170.198 453.329 170.439C452.265 170.679 450.43 171.32 449.26 171.881C448.09 172.415 446.361 173.457 445.43 174.178C444.473 174.899 443.116 176.207 442.398 177.089C441.68 177.97 440.776 179.225 440.377 179.893C440.004 180.561 439.419 181.843 439.1 182.778C438.754 183.686 438.356 185.502 438.223 186.837C438.01 188.76 438.036 189.722 438.382 191.591C438.595 192.873 439.1 194.689 439.499 195.651C439.898 196.612 440.776 198.162 441.441 199.123C442.132 200.085 443.223 201.367 443.914 202.008C444.579 202.622 445.776 203.53 446.521 204.037C447.292 204.518 448.808 205.266 449.872 205.693C450.936 206.121 451.787 206.548 451.787 206.681C451.787 206.788 451.627 206.868 451.468 206.868C451.281 206.868 450.217 206.575 449.127 206.201C448.037 205.854 446.228 204.972 445.138 204.251C444.047 203.53 442.451 202.221 441.6 201.367C440.776 200.512 439.845 199.444 439.526 198.99C439.233 198.535 438.648 197.521 438.249 196.719C437.824 195.918 437.185 194.396 436.866 193.381C436.308 191.778 436.228 191.004 436.228 187.772C436.228 184.621 436.334 183.712 436.866 182.03C437.185 180.935 437.877 179.252 438.382 178.291C438.887 177.329 439.792 175.94 440.403 175.193C441.042 174.418 442.079 173.35 442.744 172.816C443.409 172.255 444.419 171.507 445.005 171.133C445.59 170.759 446.787 170.171 447.664 169.798Z" fill="url(#paint12_linear_1778_708)"/>
<path d="M448.994 172.655C450.164 172.094 452.026 171.373 453.116 171.08C454.739 170.652 455.723 170.572 458.303 170.652C461.016 170.732 461.893 170.866 464.021 171.587C465.51 172.068 467.372 172.949 468.542 173.724C469.633 174.418 471.255 175.78 472.133 176.742C473.011 177.703 474.101 179.172 474.58 180.053C475.058 180.908 475.67 182.35 475.989 183.232C476.282 184.113 476.654 185.742 476.84 186.837C477.053 188.333 477.053 189.348 476.84 190.844C476.654 191.939 476.415 193.301 476.255 193.862C476.122 194.396 475.883 194.85 475.723 194.85C475.564 194.85 475.457 193.915 475.457 192.58C475.457 191.324 475.271 189.375 475.032 188.253C474.792 187.104 474.367 185.582 474.074 184.834C473.782 184.113 473.037 182.644 472.399 181.629C471.761 180.614 470.324 178.852 469.154 177.757C467.798 176.421 466.361 175.38 464.952 174.632C463.782 174.017 461.973 173.323 460.962 173.083C459.925 172.842 458.063 172.655 456.707 172.655C455.404 172.682 453.542 172.869 452.585 173.109C451.627 173.35 450.271 173.83 449.526 174.151C448.808 174.471 447.478 175.219 446.6 175.807C445.723 176.421 444.446 177.489 443.755 178.211C443.09 178.905 442.026 180.267 441.441 181.229C440.829 182.19 440.058 183.712 439.739 184.647C439.419 185.555 439.074 186.303 438.967 186.303C438.834 186.303 438.754 186.143 438.754 185.983C438.754 185.796 438.941 184.968 439.18 184.166C439.419 183.365 440.004 181.923 440.51 180.962C441.015 180 441.946 178.558 442.611 177.757C443.276 176.955 444.499 175.7 445.324 175.006C446.175 174.311 447.824 173.243 448.994 172.655Z" fill="url(#paint13_linear_1778_708)"/>
<path d="M460.244 174.044C459.686 173.884 459.234 173.617 459.26 173.457C459.287 173.27 459.579 173.243 460.111 173.35C460.59 173.457 461.734 173.83 462.691 174.204C463.649 174.552 465.191 175.38 466.149 176.021C467.106 176.662 468.542 177.863 469.367 178.745C470.191 179.599 471.308 181.015 471.867 181.896C472.425 182.778 473.17 184.166 473.489 184.968C473.808 185.769 474.287 187.452 474.553 188.707C474.872 190.363 474.952 191.618 474.846 193.381C474.739 194.716 474.42 196.693 474.128 197.788C473.808 198.883 473.064 200.752 472.452 201.927C471.654 203.45 470.723 204.678 469.207 206.201C467.771 207.67 466.468 208.658 465.218 209.326C464.207 209.86 462.452 210.581 461.361 210.901C459.819 211.382 458.755 211.516 456.574 211.516C454.739 211.516 453.249 211.355 452.239 211.062C451.414 210.821 450.723 210.527 450.723 210.421C450.723 210.287 452.186 210.127 453.968 210.047C456.68 209.913 457.638 209.753 459.633 209.058C460.962 208.578 462.691 207.803 463.489 207.349C464.287 206.868 466.042 205.373 467.372 204.064C469.34 202.114 469.979 201.233 470.909 199.39C471.521 198.135 472.186 196.265 472.399 195.25C472.612 194.235 472.798 192.473 472.798 191.378C472.798 190.283 472.612 188.52 472.399 187.505C472.186 186.49 471.601 184.781 471.096 183.766C470.617 182.751 469.659 181.148 468.968 180.24C468.303 179.306 467.053 177.997 466.228 177.329C465.377 176.662 463.915 175.727 462.957 175.246C462 174.765 460.776 174.231 460.244 174.044Z" fill="url(#paint14_linear_1778_708)"/>
<path d="M434.233 188.173C434.393 187.211 434.659 186.17 434.792 185.849C434.925 185.502 435.111 185.235 435.217 185.235C435.35 185.235 435.457 186.463 435.483 187.986C435.51 189.722 435.749 191.485 436.095 192.847C436.414 194.022 437.132 195.891 437.691 196.986C438.276 198.081 439.34 199.711 440.058 200.592C440.776 201.473 442.185 202.835 443.169 203.61C444.18 204.411 445.776 205.399 446.733 205.854C447.691 206.308 449.233 206.842 450.191 207.029C451.148 207.242 452.93 207.403 454.18 207.403C455.617 207.403 457.212 207.216 458.569 206.868C459.739 206.548 461.468 205.88 462.425 205.373C463.383 204.865 464.819 203.931 465.617 203.316C466.415 202.675 467.665 201.367 468.383 200.432C469.101 199.497 470.085 197.841 470.59 196.799C471.069 195.731 471.468 194.663 471.468 194.449C471.468 194.235 471.574 193.995 471.734 193.915C471.894 193.835 472.053 193.808 472.133 193.862C472.213 193.888 472.08 194.636 471.84 195.517C471.601 196.399 470.909 198.081 470.298 199.23C469.659 200.485 468.489 202.114 467.479 203.209C466.521 204.224 464.978 205.586 464.021 206.227C463.064 206.842 461.548 207.67 460.643 208.044C459.712 208.417 458.037 208.925 456.92 209.165C455.404 209.486 454.127 209.566 452.186 209.459C450.723 209.352 448.755 209.058 447.797 208.765C446.84 208.498 445.483 207.99 444.739 207.67C444.021 207.349 442.744 206.628 441.946 206.067C441.148 205.533 439.765 204.304 438.887 203.37C438.01 202.435 436.919 200.993 436.441 200.191C435.988 199.39 435.27 197.761 434.898 196.586C434.472 195.277 434.127 193.568 434.047 192.179C433.941 190.79 434.02 189.214 434.233 188.173Z" fill="url(#paint15_linear_1778_708)"/>
<defs>
<linearGradient id="paint0_linear_1778_708" x1="434" y1="21.5" x2="477" y2="21.5" gradientUnits="userSpaceOnUse">
<stop stop-color="#00BE61"/>
<stop offset="1" stop-color="#00D3FF"/>
</linearGradient>
<linearGradient id="paint1_linear_1778_708" x1="434" y1="21.5" x2="477" y2="21.5" gradientUnits="userSpaceOnUse">
<stop stop-color="#00BE61"/>
<stop offset="1" stop-color="#00D3FF"/>
</linearGradient>
<linearGradient id="paint2_linear_1778_708" x1="434" y1="21.5" x2="477" y2="21.5" gradientUnits="userSpaceOnUse">
<stop stop-color="#00BE61"/>
<stop offset="1" stop-color="#00D3FF"/>
</linearGradient>
<linearGradient id="paint3_linear_1778_708" x1="434" y1="21.5" x2="477" y2="21.5" gradientUnits="userSpaceOnUse">
<stop stop-color="#00BE61"/>
<stop offset="1" stop-color="#00D3FF"/>
</linearGradient>
<linearGradient id="paint4_linear_1778_708" x1="434" y1="77.5" x2="477" y2="77.5" gradientUnits="userSpaceOnUse">
<stop stop-color="#00BE61"/>
<stop offset="1" stop-color="#00D3FF"/>
</linearGradient>
<linearGradient id="paint5_linear_1778_708" x1="434" y1="77.5" x2="477" y2="77.5" gradientUnits="userSpaceOnUse">
<stop stop-color="#00BE61"/>
<stop offset="1" stop-color="#00D3FF"/>
</linearGradient>
<linearGradient id="paint6_linear_1778_708" x1="434" y1="77.5" x2="477" y2="77.5" gradientUnits="userSpaceOnUse">
<stop stop-color="#00BE61"/>
<stop offset="1" stop-color="#00D3FF"/>
</linearGradient>
<linearGradient id="paint7_linear_1778_708" x1="434" y1="77.5" x2="477" y2="77.5" gradientUnits="userSpaceOnUse">
<stop stop-color="#00BE61"/>
<stop offset="1" stop-color="#00D3FF"/>
</linearGradient>
<linearGradient id="paint8_linear_1778_708" x1="434" y1="133.758" x2="477" y2="133.758" gradientUnits="userSpaceOnUse">
<stop stop-color="#00BE61"/>
<stop offset="1" stop-color="#00D3FF"/>
</linearGradient>
<linearGradient id="paint9_linear_1778_708" x1="434" y1="133.758" x2="477" y2="133.758" gradientUnits="userSpaceOnUse">
<stop stop-color="#00BE61"/>
<stop offset="1" stop-color="#00D3FF"/>
</linearGradient>
<linearGradient id="paint10_linear_1778_708" x1="434" y1="133.758" x2="477" y2="133.758" gradientUnits="userSpaceOnUse">
<stop stop-color="#00BE61"/>
<stop offset="1" stop-color="#00D3FF"/>
</linearGradient>
<linearGradient id="paint11_linear_1778_708" x1="434" y1="133.758" x2="477" y2="133.758" gradientUnits="userSpaceOnUse">
<stop stop-color="#00BE61"/>
<stop offset="1" stop-color="#00D3FF"/>
</linearGradient>
<linearGradient id="paint12_linear_1778_708" x1="434" y1="190.016" x2="477" y2="190.016" gradientUnits="userSpaceOnUse">
<stop stop-color="#00BE61"/>
<stop offset="1" stop-color="#00D3FF"/>
</linearGradient>
<linearGradient id="paint13_linear_1778_708" x1="434" y1="190.016" x2="477" y2="190.016" gradientUnits="userSpaceOnUse">
<stop stop-color="#00BE61"/>
<stop offset="1" stop-color="#00D3FF"/>
</linearGradient>
<linearGradient id="paint14_linear_1778_708" x1="434" y1="190.016" x2="477" y2="190.016" gradientUnits="userSpaceOnUse">
<stop stop-color="#00BE61"/>
<stop offset="1" stop-color="#00D3FF"/>
</linearGradient>
<linearGradient id="paint15_linear_1778_708" x1="434" y1="190.016" x2="477" y2="190.016" gradientUnits="userSpaceOnUse">
<stop stop-color="#00BE61"/>
<stop offset="1" stop-color="#00D3FF"/>
</linearGradient>
</defs>
</svg>
