<svg width="381" height="90" viewBox="0 0 381 90" fill="none" xmlns="http://www.w3.org/2000/svg">
<path d="M0.822141 72.4934L7.43571 71.3021C9.24657 70.976 10.7818 71.1953 12.0413 71.9601C13.3166 72.7221 14.1045 73.9377 14.4052 75.6068C14.7172 77.339 14.4122 78.7595 13.4902 79.8685C12.5653 80.9618 11.1817 81.6744 9.33938 82.0062L5.74915 82.6529L6.79576 88.4634L3.79603 89.0037L0.822141 72.4934ZM8.53836 79.5899C10.7901 79.1843 11.7458 78.0367 11.4055 76.1472C11.0566 74.2103 9.75628 73.4447 7.50451 73.8503L4.26859 74.4332L5.30243 80.1728L8.53836 79.5899ZM15.3308 69.88L22.2279 68.6377C24.0545 68.3087 25.5446 68.5036 26.6983 69.2225C27.852 69.9414 28.582 71.1511 28.8884 72.8518C29.1068 74.0642 28.9934 75.1495 28.5481 76.1076C28.1029 77.0657 27.3618 77.8251 26.3248 78.3859L30.8233 84.1355L27.7527 84.6885L23.4749 79.2162L20.2153 79.8033L21.3045 85.85L18.3047 86.3903L15.3308 69.88ZM23.1226 76.7191C24.0989 76.5433 24.8451 76.1731 25.3612 75.6087C25.8773 75.0442 26.0531 74.3054 25.8886 73.3921C25.5568 71.5497 24.3043 70.8243 22.1313 71.2157L18.7773 71.8198L19.7686 77.3232L23.1226 76.7191ZM30.3009 67.1836L41.4731 65.1712L41.9198 67.6513L33.7473 69.1234L34.5642 73.6584L40.6345 72.565L41.0812 75.0451L35.0109 76.1385L35.8278 80.6735L44.0003 79.2014L44.447 81.6815L33.2748 83.6939L30.3009 67.1836ZM43.6101 64.7863L46.539 64.2587L54.2444 75.3566L57.5931 62.2676L60.522 61.7401L63.4959 78.2504L60.6615 78.7609L58.7299 68.0375L55.7485 79.6458L54.3313 79.9011L47.4869 70.0626L49.4184 80.786L46.584 81.2966L43.6101 64.7863ZM63.3549 61.2298L66.3546 60.6895L69.3285 77.1998L66.3288 77.7401L63.3549 61.2298ZM79.1726 75.7924C76.8421 76.2122 74.9693 75.9236 73.5542 74.9267C72.1519 73.9112 71.2636 72.3641 70.8892 70.2856L69.0726 60.1999L72.0723 59.6596L73.8975 69.7925C74.1329 71.0995 74.6752 72.0342 75.5243 72.5965C76.3863 73.1403 77.4394 73.3002 78.6833 73.0761C79.9116 72.8549 80.8269 72.3405 81.4293 71.5329C82.0446 70.7068 82.2345 69.6402 81.9991 68.3332L80.1739 58.2003L83.1736 57.66L84.9903 67.7457C85.3647 69.8242 85.072 71.584 84.1123 73.0249C83.1497 74.4501 81.5031 75.3726 79.1726 75.7924ZM85.8907 57.1706L88.8195 56.643L96.5249 67.7408L99.8736 54.6519L102.802 54.1243L105.776 70.6347L102.942 71.1452L101.01 60.4218L98.0291 72.0301L96.6119 72.2854L89.7674 62.4469L91.6989 73.1703L88.8645 73.6809L85.8907 57.1706ZM125.789 67.0299C123.947 67.3617 122.272 67.3139 120.764 66.8864C119.272 66.456 118.035 65.6791 117.052 64.5555C116.085 63.4291 115.451 62.0313 115.151 60.3622C114.847 58.6773 114.957 57.1211 115.48 55.6938C116.017 54.2478 116.882 53.0514 118.077 52.1046C119.288 51.1549 120.72 50.5311 122.374 50.2333C124.011 49.9384 125.555 50.026 127.006 50.4964C128.472 50.9639 129.7 51.7831 130.692 52.9539C131.696 54.1061 132.35 55.5247 132.653 57.2096C132.857 58.3433 132.801 59.4752 132.484 60.6053C132.165 61.7195 131.657 62.6482 130.962 63.3912L133.986 62.8467L134.458 65.4685L125.789 67.0299ZM124.922 64.3816C126.67 64.0668 127.968 63.3291 128.815 62.1684C129.679 61.0049 129.95 59.5335 129.63 57.7541C129.42 56.5889 128.984 55.6107 128.321 54.8197C127.658 54.0287 126.851 53.4749 125.9 53.1585C124.949 52.8421 123.938 52.7804 122.867 52.9732C121.796 53.1661 120.863 53.5782 120.066 54.2094C119.285 54.8378 118.722 55.6383 118.377 56.6108C118.032 57.5834 117.964 58.6523 118.174 59.8176C118.497 61.6127 119.259 62.9062 120.458 63.6981C121.671 64.4715 123.158 64.6993 124.922 64.3816ZM143.366 64.2297C141.036 64.6494 139.163 64.3609 137.748 63.3639C136.345 62.3484 135.457 60.8014 135.083 58.7228L133.266 48.6371L136.266 48.0968L138.091 58.2298C138.326 59.5367 138.869 60.4714 139.718 61.0338C140.58 61.5776 141.633 61.7374 142.877 61.5134C144.105 61.2921 145.02 60.7777 145.623 59.9702C146.238 59.144 146.428 58.0774 146.193 56.7705L144.367 46.6375L147.367 46.0972L149.184 56.1829C149.558 58.2615 149.266 60.0212 148.306 61.4622C147.343 62.8874 145.697 63.8099 143.366 64.2297ZM154.68 44.78L157.585 44.2567L167.149 59.58L164.102 60.1288L161.905 56.5983L154.914 57.8577L154.111 61.9285L151.04 62.4816L154.68 44.78ZM160.632 54.2671L156.699 47.7328L155.294 55.2287L160.632 54.2671ZM166.53 42.6454L169.53 42.1051L172.057 56.1353L179.994 54.7058L180.44 57.1859L169.504 59.1558L166.53 42.6454ZM179.355 40.3354L182.355 39.7951L185.329 56.3054L182.329 56.8457L179.355 40.3354ZM189.677 41.0368L184.693 41.9345L184.246 39.4544L197.214 37.1187L197.66 39.5988L192.677 40.4965L195.204 54.5267L192.204 55.067L189.677 41.0368ZM206.239 46.0523L198.397 36.9055L201.586 36.3312L207.16 42.9112L210.207 34.7783L213.372 34.2082L209.097 45.5375L210.228 51.8204L207.37 52.3352L206.239 46.0523Z" fill="url(#paint0_linear_1737_10)"/>
<path d="M223.363 28.147L232.044 26.5835C234.386 26.1616 236.367 26.4448 237.988 27.4331C239.606 28.4018 240.611 29.9785 241.005 32.1634C241.409 34.4072 241.02 36.2554 239.839 37.7078C238.677 39.1566 236.916 40.0938 234.554 40.5192L230.361 41.2744L231.568 47.9766L227.081 48.7849L223.363 28.147ZM233.229 36.8866C235.768 36.4292 236.844 35.1278 236.458 32.9823C236.242 31.7817 235.746 31.0072 234.972 30.6589C234.218 30.307 233.25 30.2374 232.069 30.4502L228.526 31.0883L229.686 37.5248L233.229 36.8866ZM241.816 24.8232L250.762 23.2118C253.105 22.7899 255.032 23.0525 256.543 23.9995C258.071 24.9232 259.034 26.4874 259.431 28.6919C259.708 30.2272 259.589 31.5999 259.075 32.8102C258.558 34.0007 257.695 34.959 256.484 35.6851L261.772 42.5361L257.166 43.3658L252.274 37.0225L248.761 37.6553L250.021 44.6527L245.534 45.4611L241.816 24.8232ZM251.747 33.2462C252.888 33.0406 253.74 32.6333 254.301 32.0242C254.881 31.4115 255.076 30.5738 254.884 29.5109C254.682 28.3889 254.216 27.6601 253.484 27.3244C252.75 26.969 251.802 26.8959 250.641 27.1051L246.979 27.7645L248.086 33.9057L251.747 33.2462ZM274.518 40.6975C272.452 41.0698 270.49 40.9557 268.634 40.3551C266.798 39.7511 265.253 38.7289 263.997 37.2886C262.739 35.8286 261.92 34.0456 261.54 31.9395C261.161 29.8333 261.306 27.8766 261.976 26.0691C262.647 24.2617 263.737 22.7546 265.247 21.5478C266.776 20.3375 268.575 19.5462 270.641 19.1739C272.708 18.8016 274.65 18.9193 276.466 19.5269C278.302 20.131 279.85 21.163 281.109 22.623C282.367 24.083 283.186 25.866 283.566 27.9721C283.945 30.0782 283.8 32.035 283.129 33.8424C282.456 35.6302 281.364 37.1275 279.854 38.3343C278.364 39.5375 276.585 40.3253 274.518 40.6975ZM273.774 36.564C274.955 36.3513 275.98 35.8924 276.848 35.1872C277.733 34.4588 278.372 33.5511 278.766 32.4641C279.156 31.3575 279.23 30.1349 278.989 28.7964C278.752 27.4777 278.259 26.3776 277.511 25.4963C276.779 24.5917 275.873 23.9623 274.793 23.6081C273.729 23.2307 272.597 23.1502 271.397 23.3664C270.176 23.5862 269.124 24.0604 268.239 24.7888C267.37 25.4939 266.741 26.3998 266.351 27.5065C265.957 28.5935 265.879 29.7964 266.117 31.1151C266.358 32.4536 266.854 33.5734 267.606 34.4744C268.354 35.3557 269.269 35.9833 270.353 36.3572C271.433 36.7114 272.573 36.7803 273.774 36.564ZM284.172 17.194L291.346 15.9017C293.59 15.4975 295.623 15.5581 297.445 16.0834C299.267 16.6088 300.769 17.5575 301.951 18.9297C303.133 20.3019 303.912 22.0313 304.288 24.1177C304.905 27.5426 304.369 30.3216 302.68 32.4547C301.008 34.5646 298.39 35.9404 294.827 36.5821L287.889 37.8319L284.172 17.194ZM294.388 32.7899C296.494 32.4106 298.002 31.5293 298.911 30.1463C299.82 28.7632 300.087 27.0284 299.711 24.942C299.488 23.7019 299.042 22.6342 298.372 21.7386C297.703 20.8431 296.846 20.2049 295.802 19.8239C294.758 19.443 293.596 19.3677 292.317 19.5982L289.335 20.1353L291.702 33.2739L294.388 32.7899ZM317.704 32.9187C314.693 33.4612 312.277 33.0834 310.458 31.7852C308.636 30.4674 307.484 28.4701 307.001 25.7932L304.784 13.4813L309.272 12.6729L311.5 25.0438C311.769 26.5398 312.388 27.6069 313.357 28.2454C314.325 28.8838 315.528 29.0736 316.965 28.8148C318.382 28.5595 319.423 27.9655 320.088 27.0328C320.773 26.0966 320.981 24.8805 320.712 23.3846L318.483 11.0137L322.971 10.2053L325.189 22.5172C325.671 25.1941 325.298 27.4662 324.069 29.3336C322.837 31.1812 320.716 32.3763 317.704 32.9187ZM340.289 28.8507C338.084 29.2478 336.058 29.1658 334.209 28.6046C332.357 28.0238 330.823 27.0096 329.607 25.5623C328.391 24.1149 327.586 22.2987 327.193 20.1139C326.799 17.9291 326.919 15.9463 327.554 14.1657C328.185 12.3653 329.269 10.8797 330.805 9.70869C332.338 8.51804 334.207 7.72417 336.412 7.32708C339.266 6.813 341.765 7.03355 343.908 7.98874L344.674 12.2403C343.676 11.668 342.589 11.3255 341.41 11.2126C340.247 11.0766 338.957 11.1362 337.54 11.3914C335.395 11.7779 333.8 12.6849 332.757 14.1125C331.73 15.5168 331.4 17.2425 331.769 19.2896C332.141 21.3563 333.065 22.8766 334.541 23.8504C336.014 24.8045 337.813 25.09 339.939 24.7071C341.395 24.4448 342.654 24.0452 343.716 23.5085C344.774 22.9522 345.716 22.2033 346.543 21.2619L347.308 25.5135C345.739 27.1781 343.399 28.2905 340.289 28.8507ZM351.855 8.87397L345.832 9.95887L345.157 6.20921L361.69 3.23106L362.366 6.98072L356.343 8.06562L359.385 24.9538L354.897 25.7622L351.855 8.87397ZM372.912 22.9746C371.652 23.2015 370.381 23.3085 369.098 23.2957C367.816 23.2828 366.745 23.1505 365.887 22.8986L365.174 18.9423C366.31 19.2662 367.461 19.455 368.629 19.5088C369.798 19.5626 370.893 19.4973 371.917 19.3129C373.058 19.1073 373.889 18.7545 374.409 18.2544C374.928 17.7544 375.124 17.1501 374.997 16.4415C374.904 15.9297 374.679 15.5233 374.32 15.2222C373.961 14.9211 373.471 14.6841 372.85 14.5114C372.246 14.3154 371.321 14.0858 370.074 13.8226C368.004 13.3827 366.448 12.7585 365.409 11.95C364.365 11.1219 363.714 9.98936 363.455 8.55248C363.246 7.39117 363.377 6.31092 363.847 5.31172C364.314 4.29283 365.074 3.43454 366.127 2.73682C367.18 2.03911 368.454 1.55552 369.95 1.28607C371.17 1.06625 372.271 0.969673 373.251 0.996325C374.231 1.02298 375.211 1.16143 376.191 1.41169L376.883 5.24993C374.994 4.69586 373.184 4.57483 371.452 4.88682C370.35 5.08536 369.519 5.4382 368.96 5.94531C368.398 6.43275 368.18 7.03076 368.308 7.73936C368.4 8.25112 368.624 8.64772 368.98 8.92916C369.335 9.21059 369.802 9.43139 370.379 9.59154C370.957 9.7517 371.89 9.96968 373.179 10.2455C374.683 10.5843 375.879 10.9583 376.765 11.3676C377.648 11.7573 378.344 12.2924 378.853 12.973C379.358 13.6339 379.708 14.5056 379.903 15.5882C380.24 17.4581 379.823 19.037 378.653 20.3248C377.502 21.6091 375.589 22.4924 372.912 22.9746Z" fill="url(#paint1_linear_1737_10)"/>
<defs>
<linearGradient id="paint0_linear_1737_10" x1="0.129215" y1="78.9952" x2="380.016" y2="10.5687" gradientUnits="userSpaceOnUse">
<stop offset="1" stop-color="#202020"/>
</linearGradient>
<linearGradient id="paint1_linear_1737_10" x1="0.129215" y1="78.9952" x2="380.016" y2="10.5687" gradientUnits="userSpaceOnUse">
<stop offset="1" stop-color="#586AB9"/>
</linearGradient>
</defs>
</svg>
