<svg width="119" height="10" viewBox="0 0 119 10" fill="none" xmlns="http://www.w3.org/2000/svg">
<path d="M-0.00079625 3.10719H2.1112L3.0352 6.40719L3.9592 3.10719H5.6632L6.5872 6.40719L7.5112 3.10719H9.62321L7.6912 8.86719H5.7952L4.8112 5.62719L3.8272 8.86719H1.9312L-0.00079625 3.10719ZM9.79608 3.10719H11.9081L12.8321 6.40719L13.7561 3.10719H15.4601L16.3841 6.40719L17.3081 3.10719H19.4201L17.4881 8.86719H15.5921L14.6081 5.62719L13.6241 8.86719H11.7281L9.79608 3.10719ZM19.593 3.10719H21.705L22.629 6.40719L23.553 3.10719H25.257L26.181 6.40719L27.105 3.10719H29.217L27.285 8.86719H25.389L24.405 5.62719L23.421 8.86719H21.525L19.593 3.10719ZM30.5677 8.86719C30.3597 8.86719 30.1797 8.79519 30.0277 8.65119C29.8837 8.50719 29.8117 8.33119 29.8117 8.12319C29.8117 7.90719 29.8837 7.72319 30.0277 7.57119C30.1797 7.41919 30.3597 7.34319 30.5677 7.34319C30.7837 7.34319 30.9637 7.41919 31.1077 7.57119C31.2597 7.72319 31.3357 7.90719 31.3357 8.12319C31.3357 8.33119 31.2597 8.50719 31.1077 8.65119C30.9637 8.79519 30.7837 8.86719 30.5677 8.86719ZM35.4848 9.04719C34.7728 9.04719 34.1488 8.91919 33.6128 8.66319C33.0768 8.39919 32.6608 8.03919 32.3648 7.58319C32.0768 7.11919 31.9328 6.58719 31.9328 5.98719C31.9328 5.38719 32.0768 4.85919 32.3648 4.40319C32.6608 3.93919 33.0768 3.57919 33.6128 3.32319C34.1488 3.05919 34.7728 2.92719 35.4848 2.92719C36.1968 2.92719 36.8208 3.05919 37.3568 3.32319C37.8928 3.57919 38.3048 3.93919 38.5928 4.40319C38.8888 4.85919 39.0368 5.38719 39.0368 5.98719C39.0368 6.58719 38.8888 7.11919 38.5928 7.58319C38.3048 8.03919 37.8928 8.39919 37.3568 8.66319C36.8208 8.91919 36.1968 9.04719 35.4848 9.04719ZM35.4848 7.40319C35.9088 7.40319 36.2448 7.27919 36.4928 7.03119C36.7488 6.77519 36.8768 6.42719 36.8768 5.98719C36.8768 5.54719 36.7488 5.20319 36.4928 4.95519C36.2448 4.69919 35.9088 4.57119 35.4848 4.57119C35.0608 4.57119 34.7208 4.69919 34.4648 4.95519C34.2168 5.20319 34.0928 5.54719 34.0928 5.98719C34.0928 6.42719 34.2168 6.77519 34.4648 7.03119C34.7208 7.27919 35.0608 7.40319 35.4848 7.40319ZM42.8793 9.04719C42.1673 9.04719 41.5433 8.91919 41.0073 8.66319C40.4713 8.39919 40.0553 8.03919 39.7593 7.58319C39.4713 7.11919 39.3273 6.58719 39.3273 5.98719C39.3273 5.38719 39.4713 4.85919 39.7593 4.40319C40.0553 3.93919 40.4713 3.57919 41.0073 3.32319C41.5433 3.05919 42.1673 2.92719 42.8793 2.92719C43.5913 2.92719 44.2153 3.05919 44.7513 3.32319C45.2873 3.57919 45.6993 3.93919 45.9873 4.40319C46.2833 4.85919 46.4313 5.38719 46.4313 5.98719C46.4313 6.58719 46.2833 7.11919 45.9873 7.58319C45.6993 8.03919 45.2873 8.39919 44.7513 8.66319C44.2153 8.91919 43.5913 9.04719 42.8793 9.04719ZM42.8793 7.40319C43.3033 7.40319 43.6393 7.27919 43.8873 7.03119C44.1433 6.77519 44.2713 6.42719 44.2713 5.98719C44.2713 5.54719 44.1433 5.20319 43.8873 4.95519C43.6393 4.69919 43.3033 4.57119 42.8793 4.57119C42.4553 4.57119 42.1153 4.69919 41.8593 4.95519C41.6113 5.20319 41.4873 5.54719 41.4873 5.98719C41.4873 6.42719 41.6113 6.77519 41.8593 7.03119C42.1153 7.27919 42.4553 7.40319 42.8793 7.40319ZM49.9108 9.04719C49.3108 9.04719 48.7788 8.92319 48.3148 8.67519C47.8508 8.41919 47.4908 8.06319 47.2348 7.60719C46.9788 7.14319 46.8508 6.60719 46.8508 5.99919C46.8508 5.39919 46.9788 4.86719 47.2348 4.40319C47.4908 3.93119 47.8468 3.56719 48.3028 3.31119C48.7668 3.05519 49.3028 2.92719 49.9108 2.92719C50.3108 2.92719 50.6788 2.98319 51.0148 3.09519C51.3508 3.20719 51.6388 3.36719 51.8788 3.57519V-0.000812276H53.9908V8.86719H51.9508V8.29119C51.4148 8.79519 50.7348 9.04719 49.9108 9.04719ZM50.4628 7.41519C50.7828 7.41519 51.0708 7.33519 51.3268 7.17519C51.5828 7.00719 51.7668 6.78319 51.8788 6.50319V5.48319C51.7668 5.20319 51.5828 4.98319 51.3268 4.82319C51.0708 4.65519 50.7828 4.57119 50.4628 4.57119C50.0308 4.57119 49.6828 4.69919 49.4188 4.95519C49.1548 5.21119 49.0228 5.55919 49.0228 5.99919C49.0228 6.43919 49.1548 6.78719 49.4188 7.04319C49.6828 7.29119 50.0308 7.41519 50.4628 7.41519ZM57.0675 9.04719C56.3475 9.04719 55.7635 8.87519 55.3155 8.53119C54.8755 8.17919 54.6555 7.69119 54.6555 7.06719C54.6555 6.41919 54.8675 5.92319 55.2915 5.57919C55.7235 5.22719 56.3395 5.05119 57.1395 5.05119C57.4515 5.05119 57.7635 5.08719 58.0755 5.15919C58.3875 5.22319 58.6555 5.31119 58.8795 5.42319V5.30319C58.8795 4.68719 58.3755 4.37919 57.3675 4.37919C56.6635 4.37919 56.0195 4.51519 55.4355 4.78719V3.33519C55.6915 3.21519 56.0275 3.11919 56.4435 3.04719C56.8595 2.96719 57.2915 2.92719 57.7395 2.92719C58.8115 2.92719 59.6195 3.14319 60.1635 3.57519C60.7155 3.99919 60.9915 4.59519 60.9915 5.36319V8.86719H59.0115V8.37519C58.7955 8.58319 58.5235 8.74719 58.1955 8.86719C57.8675 8.98719 57.4915 9.04719 57.0675 9.04719ZM57.6915 7.75119C57.9395 7.75119 58.1715 7.70319 58.3875 7.60719C58.6035 7.50319 58.7675 7.37119 58.8795 7.21119V6.70719C58.5355 6.47519 58.1435 6.35919 57.7035 6.35919C57.4235 6.35919 57.2075 6.41919 57.0555 6.53919C56.9035 6.65919 56.8275 6.83519 56.8275 7.06719C56.8275 7.28319 56.8995 7.45119 57.0435 7.57119C57.1955 7.69119 57.4115 7.75119 57.6915 7.75119ZM66.0887 9.04719C65.2647 9.04719 64.5847 8.79519 64.0487 8.29119V8.86719H62.0087V-0.000812276H64.1207V3.57519C64.3527 3.37519 64.6407 3.21919 64.9847 3.10719C65.3367 2.98719 65.7047 2.92719 66.0887 2.92719C66.6967 2.92719 67.2287 3.05519 67.6847 3.31119C68.1487 3.56719 68.5087 3.93119 68.7647 4.40319C69.0207 4.86719 69.1487 5.39919 69.1487 5.99919C69.1487 6.60719 69.0207 7.14319 68.7647 7.60719C68.5087 8.06319 68.1487 8.41919 67.6847 8.67519C67.2207 8.92319 66.6887 9.04719 66.0887 9.04719ZM65.5367 7.41519C65.9687 7.41519 66.3167 7.29119 66.5807 7.04319C66.8447 6.78719 66.9767 6.43919 66.9767 5.99919C66.9767 5.55919 66.8447 5.21119 66.5807 4.95519C66.3167 4.69919 65.9687 4.57119 65.5367 4.57119C65.2167 4.57119 64.9287 4.65519 64.6727 4.82319C64.4167 4.98319 64.2327 5.20319 64.1207 5.48319V6.50319C64.2327 6.78319 64.4167 7.00719 64.6727 7.17519C64.9287 7.33519 65.2167 7.41519 65.5367 7.41519ZM72.9965 9.04719C72.2845 9.04719 71.6605 8.91919 71.1245 8.66319C70.5885 8.39919 70.1725 8.03919 69.8765 7.58319C69.5885 7.11919 69.4445 6.58719 69.4445 5.98719C69.4445 5.38719 69.5885 4.85919 69.8765 4.40319C70.1725 3.93919 70.5885 3.57919 71.1245 3.32319C71.6605 3.05919 72.2845 2.92719 72.9965 2.92719C73.7085 2.92719 74.3325 3.05919 74.8685 3.32319C75.4045 3.57919 75.8165 3.93919 76.1045 4.40319C76.4005 4.85919 76.5485 5.38719 76.5485 5.98719C76.5485 6.58719 76.4005 7.11919 76.1045 7.58319C75.8165 8.03919 75.4045 8.39919 74.8685 8.66319C74.3325 8.91919 73.7085 9.04719 72.9965 9.04719ZM72.9965 7.40319C73.4205 7.40319 73.7565 7.27919 74.0045 7.03119C74.2605 6.77519 74.3885 6.42719 74.3885 5.98719C74.3885 5.54719 74.2605 5.20319 74.0045 4.95519C73.7565 4.69919 73.4205 4.57119 72.9965 4.57119C72.5725 4.57119 72.2325 4.69919 71.9765 4.95519C71.7285 5.20319 71.6045 5.54719 71.6045 5.98719C71.6045 6.42719 71.7285 6.77519 71.9765 7.03119C72.2325 7.27919 72.5725 7.40319 72.9965 7.40319ZM77.3837 3.10719H79.4237V3.74319C79.6717 3.47119 79.9717 3.26719 80.3237 3.13119C80.6757 2.99519 81.0437 2.92719 81.4277 2.92719C82.2357 2.92719 82.8317 3.13919 83.2157 3.56319C83.6077 3.97919 83.8037 4.54719 83.8037 5.26719V8.86719H81.6917V5.54319C81.6917 4.89519 81.3957 4.57119 80.8037 4.57119C80.5317 4.57119 80.2837 4.63519 80.0597 4.76319C79.8357 4.88319 79.6477 5.07119 79.4957 5.32719V8.86719H77.3837V3.10719ZM87.6452 9.04719C87.0452 9.04719 86.5132 8.92319 86.0492 8.67519C85.5852 8.41919 85.2252 8.06319 84.9692 7.60719C84.7132 7.14319 84.5852 6.60719 84.5852 5.99919C84.5852 5.39919 84.7132 4.86719 84.9692 4.40319C85.2252 3.93119 85.5812 3.56719 86.0372 3.31119C86.5012 3.05519 87.0372 2.92719 87.6452 2.92719C88.0452 2.92719 88.4132 2.98319 88.7492 3.09519C89.0852 3.20719 89.3732 3.36719 89.6132 3.57519V-0.000812276H91.7252V8.86719H89.6852V8.29119C89.1492 8.79519 88.4692 9.04719 87.6452 9.04719ZM88.1972 7.41519C88.5172 7.41519 88.8052 7.33519 89.0612 7.17519C89.3172 7.00719 89.5012 6.78319 89.6132 6.50319V5.48319C89.5012 5.20319 89.3172 4.98319 89.0612 4.82319C88.8052 4.65519 88.5172 4.57119 88.1972 4.57119C87.7652 4.57119 87.4172 4.69919 87.1532 4.95519C86.8892 5.21119 86.7572 5.55919 86.7572 5.99919C86.7572 6.43919 86.8892 6.78719 87.1532 7.04319C87.4172 7.29119 87.7652 7.41519 88.1972 7.41519ZM93.3216 8.86719C93.1136 8.86719 92.9336 8.79519 92.7816 8.65119C92.6376 8.50719 92.5656 8.33119 92.5656 8.12319C92.5656 7.90719 92.6376 7.72319 92.7816 7.57119C92.9336 7.41919 93.1136 7.34319 93.3216 7.34319C93.5376 7.34319 93.7176 7.41919 93.8616 7.57119C94.0136 7.72319 94.0896 7.90719 94.0896 8.12319C94.0896 8.33119 94.0136 8.50719 93.8616 8.65119C93.7176 8.79519 93.5376 8.86719 93.3216 8.86719ZM98.1187 9.04719C97.0627 9.04719 96.2267 8.78319 95.6107 8.25519C94.9947 7.72719 94.6867 6.97519 94.6867 5.99919C94.6867 5.02319 94.9947 4.26719 95.6107 3.73119C96.2347 3.19519 97.0747 2.92719 98.1307 2.92719C98.6027 2.92719 99.0427 2.97519 99.4507 3.07119C99.8667 3.15919 100.211 3.28719 100.483 3.45519V5.09919C99.9947 4.74719 99.3507 4.57119 98.5507 4.57119C98.0387 4.57119 97.6267 4.69119 97.3147 4.93119C97.0107 5.16319 96.8587 5.51919 96.8587 5.99919C96.8587 6.48719 97.0107 6.84719 97.3147 7.07919C97.6187 7.30319 98.0267 7.41519 98.5387 7.41519C99.3147 7.41519 99.9867 7.23119 100.555 6.86319V8.49519C99.9467 8.86319 99.1347 9.04719 98.1187 9.04719ZM104.532 9.04719C103.82 9.04719 103.196 8.91919 102.66 8.66319C102.124 8.39919 101.708 8.03919 101.412 7.58319C101.124 7.11919 100.98 6.58719 100.98 5.98719C100.98 5.38719 101.124 4.85919 101.412 4.40319C101.708 3.93919 102.124 3.57919 102.66 3.32319C103.196 3.05919 103.82 2.92719 104.532 2.92719C105.244 2.92719 105.868 3.05919 106.404 3.32319C106.94 3.57919 107.352 3.93919 107.64 4.40319C107.936 4.85919 108.084 5.38719 108.084 5.98719C108.084 6.58719 107.936 7.11919 107.64 7.58319C107.352 8.03919 106.94 8.39919 106.404 8.66319C105.868 8.91919 105.244 9.04719 104.532 9.04719ZM104.532 7.40319C104.956 7.40319 105.292 7.27919 105.54 7.03119C105.796 6.77519 105.924 6.42719 105.924 5.98719C105.924 5.54719 105.796 5.20319 105.54 4.95519C105.292 4.69919 104.956 4.57119 104.532 4.57119C104.108 4.57119 103.768 4.69919 103.512 4.95519C103.264 5.20319 103.14 5.54719 103.14 5.98719C103.14 6.42719 103.264 6.77519 103.512 7.03119C103.768 7.27919 104.108 7.40319 104.532 7.40319ZM108.919 3.10719H110.875V3.73119C111.115 3.47519 111.391 3.27919 111.703 3.14319C112.015 2.99919 112.347 2.92719 112.699 2.92719C113.131 2.92719 113.475 2.99119 113.731 3.11919C113.995 3.24719 114.207 3.43919 114.367 3.69519C114.607 3.45519 114.899 3.26719 115.243 3.13119C115.587 2.99519 115.935 2.92719 116.287 2.92719C117.047 2.92719 117.587 3.12319 117.907 3.51519C118.227 3.89919 118.387 4.45519 118.387 5.18319V8.86719H116.371V5.48319C116.371 5.16319 116.311 4.93119 116.191 4.78719C116.071 4.64319 115.871 4.57119 115.591 4.57119C115.231 4.57119 114.939 4.69919 114.715 4.95519C114.723 5.09119 114.727 5.29919 114.727 5.57919V8.86719H112.711V5.39919C112.711 5.10319 112.659 4.89119 112.555 4.76319C112.451 4.63519 112.267 4.57119 112.003 4.57119C111.595 4.57119 111.243 4.79919 110.947 5.25519V8.86719H108.919V3.10719Z" fill="white"/>
</svg>
