<svg width="172" height="56" viewBox="0 0 172 56" fill="none" xmlns="http://www.w3.org/2000/svg">
<path d="M-74 0H145.5C160.136 0 172 11.8645 172 26.5V29.5C172 44.1355 160.136 56 145.5 56H-74V0Z" fill="url(#paint0_linear_1550_513)"/>
<path d="M27.308 24.27C26.048 24.27 24.902 23.994 23.87 23.442C22.85 22.89 22.046 22.122 21.458 21.138C20.87 20.142 20.576 19.002 20.576 17.718C20.576 16.434 20.87 15.294 21.458 14.298C22.046 13.302 22.85 12.528 23.87 11.976C24.902 11.424 26.048 11.148 27.308 11.148C28.568 11.148 29.702 11.424 30.71 11.976C31.73 12.528 32.534 13.302 33.122 14.298C33.71 15.294 34.004 16.434 34.004 17.718C34.004 19.002 33.71 20.142 33.122 21.138C32.534 22.122 31.73 22.89 30.71 23.442C29.702 23.994 28.568 24.27 27.308 24.27ZM27.308 21.75C28.028 21.75 28.682 21.588 29.27 21.264C29.87 20.928 30.344 20.46 30.692 19.86C31.04 19.248 31.214 18.534 31.214 17.718C31.214 16.914 31.04 16.212 30.692 15.612C30.356 15 29.888 14.532 29.288 14.208C28.7 13.872 28.04 13.704 27.308 13.704C26.564 13.704 25.892 13.872 25.292 14.208C24.704 14.532 24.236 15 23.888 15.612C23.54 16.212 23.366 16.914 23.366 17.718C23.366 18.534 23.54 19.248 23.888 19.86C24.236 20.46 24.71 20.928 25.31 21.264C25.91 21.588 26.576 21.75 27.308 21.75ZM41.7924 24.27C40.5324 24.27 39.3864 23.994 38.3544 23.442C37.3344 22.89 36.5304 22.122 35.9424 21.138C35.3544 20.142 35.0604 19.002 35.0604 17.718C35.0604 16.434 35.3544 15.294 35.9424 14.298C36.5304 13.302 37.3344 12.528 38.3544 11.976C39.3864 11.424 40.5324 11.148 41.7924 11.148C43.0524 11.148 44.1864 11.424 45.1944 11.976C46.2144 12.528 47.0184 13.302 47.6064 14.298C48.1944 15.294 48.4884 16.434 48.4884 17.718C48.4884 19.002 48.1944 20.142 47.6064 21.138C47.0184 22.122 46.2144 22.89 45.1944 23.442C44.1864 23.994 43.0524 24.27 41.7924 24.27ZM41.7924 21.75C42.5124 21.75 43.1664 21.588 43.7544 21.264C44.3544 20.928 44.8284 20.46 45.1764 19.86C45.5244 19.248 45.6984 18.534 45.6984 17.718C45.6984 16.914 45.5244 16.212 45.1764 15.612C44.8404 15 44.3724 14.532 43.7724 14.208C43.1844 13.872 42.5244 13.704 41.7924 13.704C41.0484 13.704 40.3764 13.872 39.7764 14.208C39.1884 14.532 38.7204 15 38.3724 15.612C38.0244 16.212 37.8504 16.914 37.8504 17.718C37.8504 18.534 38.0244 19.248 38.3724 19.86C38.7204 20.46 39.1944 20.928 39.7944 21.264C40.3944 21.588 41.0604 21.75 41.7924 21.75ZM49.9926 11.418H54.3666C55.7346 11.418 56.9286 11.67 57.9486 12.174C58.9686 12.678 59.7546 13.398 60.3066 14.334C60.8586 15.27 61.1346 16.374 61.1346 17.646C61.1346 19.734 60.5226 21.318 59.2986 22.398C58.0866 23.466 56.3946 24 54.2226 24H49.9926V11.418ZM54.3666 21.714C55.6506 21.714 56.6346 21.354 57.3186 20.634C58.0026 19.914 58.3446 18.918 58.3446 17.646C58.3446 16.89 58.1946 16.212 57.8946 15.612C57.5946 15.012 57.1566 14.544 56.5806 14.208C56.0046 13.872 55.3266 13.704 54.5466 13.704H52.7286V21.714H54.3666ZM66.1512 11.418H68.8332L73.8552 24H71.0652L69.9852 21.264H64.9992L63.9192 24H61.1112L66.1512 11.418ZM69.2652 19.086L67.4832 14.298L65.7012 19.086H69.2652ZM81.6684 11.418H87.8424C89.0304 11.418 89.9604 11.712 90.6324 12.3C91.3044 12.888 91.6404 13.74 91.6404 14.856C91.6404 15.42 91.5084 15.936 91.2444 16.404C90.9804 16.86 90.6204 17.214 90.1644 17.466C90.7884 17.694 91.2564 18.042 91.5684 18.51C91.8804 18.966 92.0364 19.566 92.0364 20.31C92.0364 21.066 91.8624 21.726 91.5144 22.29C91.1784 22.842 90.7104 23.268 90.1104 23.568C89.5224 23.856 88.8684 24 88.1484 24H81.6684V11.418ZM87.3204 16.53C87.8004 16.53 88.1784 16.41 88.4544 16.17C88.7304 15.93 88.8684 15.546 88.8684 15.018C88.8684 14.442 88.7304 14.046 88.4544 13.83C88.1904 13.614 87.7824 13.506 87.2304 13.506H84.4044V16.53H87.3204ZM87.4824 21.912C88.0704 21.912 88.5144 21.798 88.8144 21.57C89.1264 21.33 89.2824 20.916 89.2824 20.328C89.2824 19.728 89.1204 19.296 88.7964 19.032C88.4844 18.768 88.0164 18.636 87.3924 18.636H84.4044V21.912H87.4824ZM98.4108 24.27C97.3668 24.27 96.4488 24.084 95.6568 23.712C94.8768 23.328 94.2708 22.794 93.8388 22.11C93.4188 21.414 93.2088 20.604 93.2088 19.68C93.2088 18.78 93.4188 17.982 93.8388 17.286C94.2708 16.59 94.8768 16.05 95.6568 15.666C96.4488 15.282 97.3668 15.09 98.4108 15.09C99.4428 15.09 100.349 15.282 101.129 15.666C101.921 16.05 102.527 16.59 102.947 17.286C103.379 17.982 103.595 18.78 103.595 19.68C103.595 20.604 103.379 21.414 102.947 22.11C102.527 22.794 101.927 23.328 101.147 23.712C100.367 24.084 99.4548 24.27 98.4108 24.27ZM98.4108 22.146C99.1428 22.146 99.7248 21.924 100.157 21.48C100.589 21.024 100.805 20.424 100.805 19.68C100.805 18.912 100.589 18.312 100.157 17.88C99.7368 17.436 99.1548 17.214 98.4108 17.214C97.6668 17.214 97.0788 17.436 96.6468 17.88C96.2148 18.312 95.9988 18.912 95.9988 19.68C95.9988 20.424 96.2148 21.024 96.6468 21.48C97.0908 21.924 97.6788 22.146 98.4108 22.146ZM105.118 15.36H107.746V16.422C108.142 15.978 108.61 15.648 109.15 15.432C109.702 15.204 110.278 15.09 110.878 15.09C112.054 15.09 112.93 15.408 113.506 16.044C114.094 16.668 114.388 17.514 114.388 18.582V24H111.67V18.888C111.67 17.772 111.154 17.214 110.122 17.214C109.666 17.214 109.24 17.328 108.844 17.556C108.448 17.772 108.112 18.096 107.836 18.528V24H105.118V15.36ZM120.404 24.27C119.516 24.27 118.724 24.084 118.028 23.712C117.344 23.328 116.804 22.794 116.408 22.11C116.024 21.414 115.832 20.61 115.832 19.698C115.832 18.798 116.024 18 116.408 17.304C116.792 16.608 117.332 16.068 118.028 15.684C118.724 15.288 119.516 15.09 120.404 15.09C121.052 15.09 121.646 15.18 122.186 15.36C122.726 15.54 123.182 15.798 123.554 16.134V10.698H126.272V24H123.644V23.064C123.2 23.484 122.714 23.79 122.186 23.982C121.67 24.174 121.076 24.27 120.404 24.27ZM121.106 22.164C121.67 22.164 122.168 22.014 122.6 21.714C123.044 21.414 123.362 21.012 123.554 20.508V18.87C123.386 18.378 123.074 17.982 122.618 17.682C122.174 17.37 121.67 17.214 121.106 17.214C120.374 17.214 119.774 17.442 119.306 17.898C118.85 18.354 118.622 18.954 118.622 19.698C118.622 20.442 118.85 21.042 119.306 21.498C119.774 21.942 120.374 22.164 121.106 22.164ZM27.38 45.27C26.036 45.27 24.848 45.006 23.816 44.478C22.784 43.938 21.986 43.176 21.422 42.192C20.858 41.208 20.576 40.05 20.576 38.718C20.576 37.386 20.858 36.228 21.422 35.244C21.986 34.248 22.784 33.486 23.816 32.958C24.848 32.418 26.036 32.148 27.38 32.148C28.292 32.148 29.096 32.244 29.792 32.436C30.5 32.616 31.148 32.904 31.736 33.3V35.91C31.208 35.478 30.602 35.166 29.918 34.974C29.246 34.77 28.478 34.668 27.614 34.668C26.81 34.668 26.084 34.836 25.436 35.172C24.8 35.496 24.296 35.964 23.924 36.576C23.552 37.188 23.366 37.902 23.366 38.718C23.366 39.546 23.534 40.272 23.87 40.896C24.218 41.508 24.704 41.982 25.328 42.318C25.952 42.654 26.672 42.822 27.488 42.822C28.232 42.822 28.88 42.69 29.432 42.426V39.996H27.398V37.98H32.078V44.046C30.89 44.862 29.324 45.27 27.38 45.27ZM33.6098 36.36H36.2378V37.602C36.5858 37.182 37.0718 36.864 37.6958 36.648C38.3198 36.42 39.0278 36.306 39.8198 36.306V38.376C38.9918 38.376 38.2598 38.502 37.6238 38.754C36.9998 39.006 36.5678 39.39 36.3278 39.906V45H33.6098V36.36ZM45.5534 45.27C44.5094 45.27 43.5914 45.084 42.7994 44.712C42.0194 44.328 41.4134 43.794 40.9814 43.11C40.5614 42.414 40.3514 41.604 40.3514 40.68C40.3514 39.78 40.5614 38.982 40.9814 38.286C41.4134 37.59 42.0194 37.05 42.7994 36.666C43.5914 36.282 44.5094 36.09 45.5534 36.09C46.5854 36.09 47.4914 36.282 48.2714 36.666C49.0634 37.05 49.6694 37.59 50.0894 38.286C50.5214 38.982 50.7374 39.78 50.7374 40.68C50.7374 41.604 50.5214 42.414 50.0894 43.11C49.6694 43.794 49.0694 44.328 48.2894 44.712C47.5094 45.084 46.5974 45.27 45.5534 45.27ZM45.5534 43.146C46.2854 43.146 46.8674 42.924 47.2994 42.48C47.7314 42.024 47.9474 41.424 47.9474 40.68C47.9474 39.912 47.7314 39.312 47.2994 38.88C46.8794 38.436 46.2974 38.214 45.5534 38.214C44.8094 38.214 44.2214 38.436 43.7894 38.88C43.3574 39.312 43.1414 39.912 43.1414 40.68C43.1414 41.424 43.3574 42.024 43.7894 42.48C44.2334 42.924 44.8214 43.146 45.5534 43.146ZM50.7225 36.36H53.4405L55.0245 41.76L56.5725 36.36H58.8405L60.4065 41.76L61.9725 36.36H64.6905L61.8285 45H59.3625L57.7065 39.636L56.0505 45H53.5845L50.7225 36.36ZM69.5716 45.27C68.5636 45.27 67.7956 44.994 67.2676 44.442C66.7516 43.878 66.4936 43.098 66.4936 42.102V38.322H65.2336V36.36H66.4936V33.768H69.2116V36.36H71.2456V38.322H69.2116V41.742C69.2116 42.246 69.3076 42.612 69.4996 42.84C69.6916 43.056 70.0336 43.164 70.5256 43.164C70.9216 43.164 71.2996 43.068 71.6596 42.876V44.91C71.1076 45.15 70.4116 45.27 69.5716 45.27ZM72.9145 31.698H75.6325V37.35C76.0405 36.93 76.5025 36.618 77.0185 36.414C77.5345 36.198 78.0865 36.09 78.6745 36.09C79.8505 36.09 80.7265 36.408 81.3025 37.044C81.8905 37.668 82.1845 38.514 82.1845 39.582V45H79.4665V39.888C79.4665 38.772 78.9505 38.214 77.9185 38.214C77.4625 38.214 77.0365 38.328 76.6405 38.556C76.2445 38.772 75.9085 39.096 75.6325 39.528V45H72.9145V31.698ZM94.0617 45.27C93.2937 45.27 92.5317 45.198 91.7757 45.054C91.0197 44.91 90.4017 44.718 89.9217 44.478V42.066C90.5577 42.378 91.2177 42.612 91.9017 42.768C92.5857 42.924 93.2397 43.002 93.8637 43.002C94.5597 43.002 95.0877 42.882 95.4477 42.642C95.8077 42.402 95.9877 42.066 95.9877 41.634C95.9877 41.322 95.8977 41.058 95.7177 40.842C95.5377 40.626 95.2737 40.434 94.9257 40.266C94.5897 40.086 94.0677 39.852 93.3597 39.564C92.1837 39.084 91.3317 38.55 90.8037 37.962C90.2757 37.362 90.0117 36.624 90.0117 35.748C90.0117 35.04 90.2037 34.416 90.5877 33.876C90.9717 33.324 91.5117 32.898 92.2077 32.598C92.9037 32.298 93.7077 32.148 94.6197 32.148C95.3637 32.148 96.0237 32.208 96.5997 32.328C97.1757 32.448 97.7397 32.634 98.2917 32.886V35.226C97.2357 34.698 96.1797 34.434 95.1237 34.434C94.4517 34.434 93.9237 34.554 93.5397 34.794C93.1557 35.022 92.9637 35.352 92.9637 35.784C92.9637 36.096 93.0537 36.354 93.2337 36.558C93.4137 36.762 93.6657 36.942 93.9897 37.098C94.3137 37.254 94.8417 37.482 95.5737 37.782C96.4257 38.142 97.0917 38.49 97.5717 38.826C98.0517 39.15 98.4057 39.54 98.6337 39.996C98.8617 40.44 98.9757 40.992 98.9757 41.652C98.9757 42.792 98.5617 43.68 97.7337 44.316C96.9177 44.952 95.6937 45.27 94.0617 45.27ZM103.497 45.27C102.489 45.27 101.721 44.994 101.193 44.442C100.677 43.878 100.419 43.098 100.419 42.102V38.322H99.1594V36.36H100.419V33.768H103.137V36.36H105.171V38.322H103.137V41.742C103.137 42.246 103.233 42.612 103.425 42.84C103.617 43.056 103.959 43.164 104.451 43.164C104.847 43.164 105.225 43.068 105.585 42.876V44.91C105.033 45.15 104.337 45.27 103.497 45.27ZM111.594 45.27C110.55 45.27 109.632 45.084 108.84 44.712C108.06 44.328 107.454 43.794 107.022 43.11C106.602 42.414 106.392 41.604 106.392 40.68C106.392 39.78 106.602 38.982 107.022 38.286C107.454 37.59 108.06 37.05 108.84 36.666C109.632 36.282 110.55 36.09 111.594 36.09C112.626 36.09 113.532 36.282 114.312 36.666C115.104 37.05 115.71 37.59 116.13 38.286C116.562 38.982 116.778 39.78 116.778 40.68C116.778 41.604 116.562 42.414 116.13 43.11C115.71 43.794 115.11 44.328 114.33 44.712C113.55 45.084 112.638 45.27 111.594 45.27ZM111.594 43.146C112.326 43.146 112.908 42.924 113.34 42.48C113.772 42.024 113.988 41.424 113.988 40.68C113.988 39.912 113.772 39.312 113.34 38.88C112.92 38.436 112.338 38.214 111.594 38.214C110.85 38.214 110.262 38.436 109.83 38.88C109.398 39.312 109.182 39.912 109.182 40.68C109.182 41.424 109.398 42.024 109.83 42.48C110.274 42.924 110.862 43.146 111.594 43.146ZM118.301 36.36H120.929V37.602C121.277 37.182 121.763 36.864 122.387 36.648C123.011 36.42 123.719 36.306 124.511 36.306V38.376C123.683 38.376 122.951 38.502 122.315 38.754C121.691 39.006 121.259 39.39 121.019 39.906V45H118.301V36.36ZM127.779 48.564C127.419 48.564 127.047 48.54 126.663 48.492C126.291 48.444 126.009 48.378 125.817 48.294V46.26C126.165 46.392 126.549 46.458 126.969 46.458C127.401 46.458 127.725 46.362 127.941 46.17C128.169 45.978 128.355 45.678 128.499 45.27L128.787 44.532L125.043 36.36H127.779L130.227 42.318L132.549 36.36H135.267L131.595 45.594C131.187 46.614 130.683 47.364 130.083 47.844C129.483 48.324 128.715 48.564 127.779 48.564Z" fill="url(#paint1_linear_1550_513)"/>
<defs>
<linearGradient id="paint0_linear_1550_513" x1="-74" y1="28" x2="172" y2="28" gradientUnits="userSpaceOnUse">
<stop offset="0.204815" stop-color="#00BE61"/>
<stop offset="1" stop-color="#00D3FF"/>
</linearGradient>
<linearGradient id="paint1_linear_1550_513" x1="20" y1="28" x2="143" y2="28" gradientUnits="userSpaceOnUse">
<stop offset="0.600962" stop-color="white"/>
</linearGradient>
</defs>
</svg>
