<svg width="206" height="14" viewBox="0 0 206 14" fill="none" xmlns="http://www.w3.org/2000/svg">
<path d="M3.79863 2.15956H0.000625025V0.269561H9.88263V2.15956H6.08463V12.8516H3.79863V2.15956ZM16.6539 13.1216C15.3939 13.1216 14.2539 12.8516 13.2339 12.3116C12.2259 11.7596 11.4279 10.9856 10.8399 9.98956C10.2639 8.99356 9.97586 7.85356 9.97586 6.56956C9.97586 5.28556 10.2639 4.14556 10.8399 3.14956C11.4279 2.15356 12.2259 1.37956 13.2339 0.827562C14.2539 0.275562 15.3939 -0.000438333 16.6539 -0.000438333C17.9019 -0.000438333 19.0299 0.275562 20.0379 0.827562C21.0579 1.37956 21.8559 2.15356 22.4319 3.14956C23.0199 4.14556 23.3139 5.28556 23.3139 6.56956C23.3139 7.85356 23.0199 8.99356 22.4319 9.98956C21.8559 10.9736 21.0579 11.7416 20.0379 12.2936C19.0299 12.8456 17.9019 13.1216 16.6539 13.1216ZM16.6539 11.0516C17.4579 11.0516 18.1899 10.8716 18.8499 10.5116C19.5099 10.1396 20.0319 9.61756 20.4159 8.94556C20.8119 8.26156 21.0099 7.46956 21.0099 6.56956C21.0099 5.68156 20.8179 4.90156 20.4339 4.22956C20.0499 3.54556 19.5279 3.01756 18.8679 2.64556C18.2079 2.27356 17.4699 2.08756 16.6539 2.08756C15.8379 2.08756 15.0939 2.27356 14.4219 2.64556C13.7619 3.01756 13.2399 3.54556 12.8559 4.22956C12.4719 4.90156 12.2799 5.68156 12.2799 6.56956C12.2799 7.46956 12.4719 8.26156 12.8559 8.94556C13.2519 9.61756 13.7799 10.1396 14.4399 10.5116C15.1119 10.8716 15.8499 11.0516 16.6539 11.0516ZM25.1191 0.269561H30.1591C31.5391 0.269561 32.6431 0.635562 33.4711 1.36756C34.3111 2.09956 34.7311 3.10156 34.7311 4.37356C34.7311 5.69356 34.3171 6.70156 33.4891 7.39756C32.6611 8.08156 31.5451 8.42356 30.1411 8.42356H27.4051V12.8516H25.1191V0.269561ZM29.8711 6.53356C31.5871 6.53356 32.4451 5.81356 32.4451 4.37356C32.4451 2.89756 31.5871 2.15956 29.8711 2.15956H27.4051V6.53356H29.8711ZM42.662 0.269561H44.894L49.106 9.48556L53.318 0.269561H55.55V12.8516H53.39V4.67956L49.646 12.8516H48.566L44.822 4.67956V12.8516H42.662V0.269561ZM64.0269 13.1216C62.7669 13.1216 61.6269 12.8516 60.6069 12.3116C59.5989 11.7596 58.8009 10.9856 58.2129 9.98956C57.6369 8.99356 57.3489 7.85356 57.3489 6.56956C57.3489 5.28556 57.6369 4.14556 58.2129 3.14956C58.8009 2.15356 59.5989 1.37956 60.6069 0.827562C61.6269 0.275562 62.7669 -0.000438333 64.0269 -0.000438333C65.2749 -0.000438333 66.4029 0.275562 67.4109 0.827562C68.4309 1.37956 69.2289 2.15356 69.8049 3.14956C70.3929 4.14556 70.6869 5.28556 70.6869 6.56956C70.6869 7.85356 70.3929 8.99356 69.8049 9.98956C69.2289 10.9736 68.4309 11.7416 67.4109 12.2936C66.4029 12.8456 65.2749 13.1216 64.0269 13.1216ZM64.0269 11.0516C64.8309 11.0516 65.5629 10.8716 66.2229 10.5116C66.8829 10.1396 67.4049 9.61756 67.7889 8.94556C68.1849 8.26156 68.3829 7.46956 68.3829 6.56956C68.3829 5.68156 68.1909 4.90156 67.8069 4.22956C67.4229 3.54556 66.9009 3.01756 66.2409 2.64556C65.5809 2.27356 64.8429 2.08756 64.0269 2.08756C63.2109 2.08756 62.4669 2.27356 61.7949 2.64556C61.1349 3.01756 60.6129 3.54556 60.2289 4.22956C59.8449 4.90156 59.6529 5.68156 59.6529 6.56956C59.6529 7.46956 59.8449 8.26156 60.2289 8.94556C60.6249 9.61756 61.1529 10.1396 61.8129 10.5116C62.4849 10.8716 63.2229 11.0516 64.0269 11.0516ZM70.9544 0.269561H73.3844L77.0924 9.79156L80.8184 0.269561H83.2304L78.2084 12.8516H75.9944L70.9544 0.269561ZM85.0253 0.269561H87.3113V12.8516H85.0253V0.269561ZM89.4726 0.269561H91.6326L97.5186 9.03556V0.269561H99.8046V12.8516H97.6446L91.7586 4.06756V12.8516H89.4726V0.269561ZM108.343 13.1216C107.023 13.1216 105.853 12.8576 104.833 12.3296C103.813 11.7896 103.021 11.0276 102.457 10.0436C101.893 9.04756 101.611 7.88956 101.611 6.56956C101.611 5.24956 101.893 4.09756 102.457 3.11356C103.021 2.11756 103.813 1.34956 104.833 0.809562C105.853 0.269562 107.023 -0.000438333 108.343 -0.000438333C109.243 -0.000438333 110.047 0.0955619 110.755 0.287562C111.463 0.479562 112.105 0.785562 112.681 1.20556V3.38356C112.153 2.92756 111.547 2.59756 110.863 2.39356C110.179 2.18956 109.405 2.08756 108.541 2.08756C107.677 2.08756 106.891 2.27356 106.183 2.64556C105.487 3.00556 104.935 3.52756 104.527 4.21156C104.119 4.88356 103.915 5.66956 103.915 6.56956C103.915 7.48156 104.107 8.27956 104.491 8.96356C104.875 9.63556 105.409 10.1576 106.093 10.5296C106.777 10.8896 107.557 11.0696 108.433 11.0696C109.357 11.0696 110.119 10.9136 110.719 10.6016V7.77556H108.595V5.95756H113.005V11.8256C111.889 12.6896 110.335 13.1216 108.343 13.1216ZM121.289 0.269561H126.329C127.709 0.269561 128.813 0.635562 129.641 1.36756C130.481 2.09956 130.901 3.10156 130.901 4.37356C130.901 5.69356 130.487 6.70156 129.659 7.39756C128.831 8.08156 127.715 8.42356 126.311 8.42356H123.575V12.8516H121.289V0.269561ZM126.041 6.53356C127.757 6.53356 128.615 5.81356 128.615 4.37356C128.615 2.89756 127.757 2.15956 126.041 2.15956H123.575V6.53356H126.041ZM132.346 0.269561H137.602C138.994 0.269561 140.068 0.611562 140.824 1.29556C141.58 1.97956 141.958 2.96956 141.958 4.26556C141.958 5.18956 141.73 5.97556 141.274 6.62356C140.818 7.27156 140.17 7.73356 139.33 8.00956L141.886 12.8516H139.546L137.116 8.24356H134.632V12.8516H132.346V0.269561ZM137.188 6.35356C137.932 6.35356 138.532 6.17956 138.988 5.83156C139.444 5.48356 139.672 4.96156 139.672 4.26556C139.672 2.86156 138.844 2.15956 137.188 2.15956H134.632V6.35356H137.188ZM149.808 13.1216C148.548 13.1216 147.408 12.8516 146.388 12.3116C145.38 11.7596 144.582 10.9856 143.994 9.98956C143.418 8.99356 143.13 7.85356 143.13 6.56956C143.13 5.28556 143.418 4.14556 143.994 3.14956C144.582 2.15356 145.38 1.37956 146.388 0.827562C147.408 0.275562 148.548 -0.000438333 149.808 -0.000438333C151.056 -0.000438333 152.184 0.275562 153.192 0.827562C154.212 1.37956 155.01 2.15356 155.586 3.14956C156.174 4.14556 156.468 5.28556 156.468 6.56956C156.468 7.85356 156.174 8.99356 155.586 9.98956C155.01 10.9736 154.212 11.7416 153.192 12.2936C152.184 12.8456 151.056 13.1216 149.808 13.1216ZM149.808 11.0516C150.612 11.0516 151.344 10.8716 152.004 10.5116C152.664 10.1396 153.186 9.61756 153.57 8.94556C153.966 8.26156 154.164 7.46956 154.164 6.56956C154.164 5.68156 153.972 4.90156 153.588 4.22956C153.204 3.54556 152.682 3.01756 152.022 2.64556C151.362 2.27356 150.624 2.08756 149.808 2.08756C148.992 2.08756 148.248 2.27356 147.576 2.64556C146.916 3.01756 146.394 3.54556 146.01 4.22956C145.626 4.90156 145.434 5.68156 145.434 6.56956C145.434 7.46956 145.626 8.26156 146.01 8.94556C146.406 9.61756 146.934 10.1396 147.594 10.5116C148.266 10.8716 149.004 11.0516 149.808 11.0516ZM158.273 0.269561H162.485C163.853 0.269561 165.041 0.521562 166.049 1.02556C167.057 1.52956 167.831 2.24956 168.371 3.18556C168.911 4.12156 169.181 5.22556 169.181 6.49756C169.181 8.58556 168.575 10.1696 167.363 11.2496C166.151 12.3176 164.459 12.8516 162.287 12.8516H158.273V0.269561ZM162.323 10.9616C163.787 10.9616 164.909 10.5716 165.689 9.79156C166.481 8.99956 166.877 7.90156 166.877 6.49756C166.877 5.64556 166.703 4.89556 166.355 4.24756C166.007 3.58756 165.509 3.07756 164.861 2.71756C164.213 2.34556 163.445 2.15956 162.557 2.15956H160.559V10.9616H162.323ZM176.274 13.1216C174.498 13.1216 173.154 12.6596 172.242 11.7356C171.342 10.7996 170.892 9.53956 170.892 7.95556V0.269561H173.178V7.99156C173.178 8.98756 173.454 9.74956 174.006 10.2776C174.57 10.7936 175.326 11.0516 176.274 11.0516C177.21 11.0516 177.954 10.7936 178.506 10.2776C179.07 9.74956 179.352 8.98756 179.352 7.99156V0.269561H181.638V7.95556C181.638 9.53956 181.188 10.7996 180.288 11.7356C179.388 12.6596 178.05 13.1216 176.274 13.1216ZM190.081 13.1216C188.761 13.1216 187.591 12.8576 186.571 12.3296C185.551 11.7896 184.759 11.0276 184.195 10.0436C183.631 9.04756 183.349 7.88956 183.349 6.56956C183.349 5.24956 183.631 4.09756 184.195 3.11356C184.759 2.11756 185.551 1.34956 186.571 0.809562C187.591 0.269562 188.761 -0.000438333 190.081 -0.000438333C191.821 -0.000438333 193.273 0.413562 194.437 1.24156V3.41956C193.393 2.53156 192.007 2.08756 190.279 2.08756C189.355 2.08756 188.545 2.27356 187.849 2.64556C187.153 3.00556 186.613 3.52156 186.229 4.19356C185.845 4.86556 185.653 5.65756 185.653 6.56956C185.653 7.48156 185.845 8.27356 186.229 8.94556C186.625 9.61756 187.171 10.1396 187.867 10.5116C188.563 10.8716 189.367 11.0516 190.279 11.0516C191.167 11.0516 191.959 10.9436 192.655 10.7276C193.351 10.4996 193.993 10.1396 194.581 9.64756V11.8256C193.477 12.6896 191.977 13.1216 190.081 13.1216ZM199.373 2.15956H195.575V0.269561H205.457V2.15956H201.659V12.8516H199.373V2.15956Z" fill="#03934D"/>
</svg>
